<svg xmlns="http://www.w3.org/2000/svg" width="356" height="132" fill="none" viewBox="0 0 356 132"><g clip-path="url(#a)"><path fill="#000" d="M175.128 33.013c2.788 0 5.484.603 8.038 1.7l2.043.887h-.009c15.238 6.706 29.38 27.203 29.765 46.635 1.724 21.719-8.021 48.92-28.442 48.92-13.555 0-25.452-8.949-32.736-23.342-4.898-7.928-7.921-18.612-7.921-30.359 0-24.48 13.112-44.441 29.262-44.441m81.256 1.675c8.255 0 25.369 7.209 28.701 20.872 4.102 16.817-8.077 28.05-8.13 28.098.011.005 9.386 4.46 9.386 14.686v20.245l8.665 8.866v3.249h-21.425l-10.265-4.597v4.597l-37.484-.058-11.612-11.764v-4.354c.038 0 8.037-.022 8.037-8.95V48.359l-8.691-8.665v-5.007zm-136.071 10.34.008.025-.041 49.071 11.948 12.148v4.346h-11.479v3.651l11.479 11.469v4.941H90.047L78.55 118.814v-4.545h.527c2.863 0 4.421-.16 6.422-1.575.92-.644 1.566-1.255 2.094-1.975H69.476L58.984 100.11h.034v-5.869l.159-.159c8.196-9.176 12.182-14.978 17.691-25.879 6.003-11.839 8.448-20.262 10.818-33.265l.1-.527.51.092c3.542.72 5.627.946 8.959.946h.695c4.22-.033 6.64-.326 10.726-1.347l.644-.176zM24.18 34.52c4.211 0 8.682.937 8.682.937C45.32 37.853 55.2 46.794 58.24 57.017l.009-.008c3.742 12.575 4.546 26.574-6.731 39.25l9.326 10.39v23.997H12.057L.009 118.58v-4.965l.284-.134c10.415-5.684 17.85-13.111 22.02-21.827-6.054-2.252-9.997-5.693-14.175-11.386A33 33 0 0 1 5.45 76.09l-1.699-3.057.017.018c-1.457-2.62-2.395-5.862-2.47-9.596-.117-6.924 2.026-16.57 8.348-22.907 3.926-3.952 8.807-5.994 14.534-6.028m331.811 10.8v26.624h-4.763l-11.32-11.311c-.117-1.775-.662-5.635-3.031-8.205-2.403-2.604-6.497-2.261-6.497-2.261l.1 12.049h5.082l10.667 10.549-.025 23.007 9.746 9.846.041 25.027h-52.813l-12.165-12.066v-4.077h.502c2.193-.134 3.533-.704 5.107-2.169 1.842-1.708 2.545-3.332 2.437-5.818V48.284l-8.465-8.59v-5.007h54.856zM175.137 34.06c-15.548 0-28.199 19.457-28.199 43.403s12.651 43.428 28.199 43.428c15.573 0 28.223-19.491 28.223-43.428S190.684 34.06 175.137 34.06M24.214 35.583c-5.476.067-10.081 1.968-13.832 5.693-6.087 6.12-8.138 15.481-8.02 22.188.175 10.013 6.697 16.2 12.666 16.201 5.242 0 8.876-4.463 9.713-11.873.829-7.585-.855-11.202-2.412-12.868-1.105-1.18-2.52-1.825-4.127-1.825-2.78 0-5.794 1.825-8.113 4.847l-.485.679-.403-.728c-1.632-2.906-1.08-8.398 1.24-12.158 1.356-2.176 3.826-4.814 8.12-4.814h.218c2.085.033 3.852.87 5.276 2.47 5.869 6.706 4.26 25.913 2.77 36.739-1.9 14.09-10.809 25.871-25.77 34.101v3.75h48.192V95.572h-2.896c-.235 1.792-.888 3.048-2.177 3.969-1.934 1.398-3.333 1.624-6.138 1.624h-15.02l1.784-.954c15.23-8.255 24.037-20.814 24.23-34.486.15-9.997-2.771-18.462-8.214-23.82-4.211-4.195-9.737-6.322-16.377-6.322zm190.407.135v2.887c3.307 0 5.71.813 7.268 2.706 1.138 1.406 1.348 2.603 1.398 4.035v59.604c.017 2.78-.352 5.141-1.834 7.041-1.716 2.143-3.524 3.165-6.186 3.475v2.294h34.745v-2.294c-2.805-.059-4.847-1.08-6.639-3.332-1.607-2.077-1.607-3.953-1.607-6.339V78.267h2.812c4.086 0 5.844.385 7.854 2.343 2.31 2.244 1.976 7.696 1.976 7.696l.134 18.971s-.134 3.014 2.009 6.196c2.512 3.725 5.568 4.303 5.568 4.303h19.567l-.017-2.294c-2.219 0-3.935-.761-5.492-2.444-1.666-1.85-1.667-3.408-1.633-5.819V90.876c0-10.894-12.532-13.623-12.567-13.63 5.802-2.789 14.61-6.532 13.856-21.895-.385-11.864-9.261-19.4-20.011-19.65zm77.011 2.913c2.771 0 4.814.954 6.614 3.097 1.524 1.809 1.809 4.455 1.851 6.322v58.457c.134 2.721-.687 4.68-2.755 6.581-1.641 1.532-3.09 2.202-5.241 2.394v2.294h52.487v-22.43h-2.018c-.435 5.426-2.135 8.967-6.187 12.911-4.504 4.404-8.942 6.262-14.886 6.263-.72 0-1.457-.001-2.253-.068l-.476-.024V78.693h3.374c2.511 0 4.647.101 6.288 1.516 1.666 1.457 2.469 3.165 2.461 4.747v7.059h3.725V63.572h-2.838v3.207c0 2.42-.879 3.844-2.553 5.543-2.211 2.302-4.697 2.487-7.292 2.487h-3.165V39.292l.502-.033c5.709-.327 9.477.82 14.048 4.253 5.484 4.211 7.879 9.461 7.804 16.093h3.257v-23.88h-52.747zm-183.375-3.383c-3.818.93-6.221 1.198-10.307 1.232h-.712c-3.24 0-5.35-.202-8.623-.838-2.36 12.776-4.831 21.225-10.826 33.013-5.542 10.926-9.52 16.77-17.724 25.963v4.47h29.513l-.025 10.048c-.762 2.001-1.666 3.114-3.45 4.379-2.16 1.549-3.977 1.758-6.505 1.758v2.495h40.154v-2.495h-3.156c-2.286 0-3.91-.092-5.743-1.557-1.541-1.214-2.52-2.42-2.587-4.253V99.089h11.72l-.007-.009v-3.54h-11.722zm66.905 3.617c3.282 0 5.944 2.83 5.944 6.322v64.284c0 3.508-2.645 6.337-5.944 6.338-3.299 0-5.97-2.83-5.97-6.338V45.186c0-3.5 2.671-6.32 5.97-6.32m155.218 72.599c1.825-.946 3.542-2.253 5.292-3.936 1.373-1.373 3.282-3.457 3.96-5.056l-9.252-9.403zM89.578 95.548h-24.08v-.52C70.32 88.08 72.833 84.06 77.002 76.76c4.973-8.7 7.502-13.732 11.504-22.858v-.008h1.072zm-8.59-1.056h7.518V81.113zm160.76-54.329c3.692 0 7.929-.377 10.198 1.917 1.934 1.968 2.604 4.68 2.604 7.2v16.251c0 3.382-.912 5.267-3.047 6.991-2.395 2.01-5.418 1.935-9.755 1.935zM33.172 1.533c1.984 0 5.049.25 6.363.468l.15.192c.16 1.34.286 3.584.328 5.71l-.612.035c-1.08-2.202-2.353-3.96-3.893-5.4a8.6 8.6 0 0 0-2.42-.31c-2.11 0-3.516 1.113-3.516 3.03s1.147 2.688 5.233 4.346c3.868 1.599 5.843 3.03 5.843 6.546 0 4.279-3.39 6.682-7.853 6.682-1.875 0-4.278-.167-6.639-.645-.318-2.553-.503-4.186-.503-6.513l.637-.093c1.08 2.294 2.394 4.178 3.951 6.129.921.318 1.692.385 2.58.385l.008-.008c2.235 0 3.834-1.215 3.834-3.6 0-2.119-1.632-2.981-4.956-4.195-4.245-1.557-6.061-3.4-6.062-6.472 0-3.675 3.508-6.288 7.527-6.288m15.916 21.232h-.008l.004-.001zM72.875 6.288c3.349 0 6.321 1.348 6.321 4.605 0 .753-.093 1.364-.352 1.649q-.276.201-.703.201c-2.453 0-4.814-.168-7.334-.168 0 0-.034.319-.034.536 0 2.964 1.691 5.878 4.78 5.878 1.374 0 2.47-.15 3.517-.477l.167.326c-1.256 2.52-2.913 3.927-6.195 3.927-4.153 0-7.35-3.282-7.35-7.828 0-5.175 3.508-8.649 7.183-8.649m-23.276 0c4.11 0 7.401 2.997 7.401 8.105 0 5.105-3.824 8.368-7.916 8.37-3.9-.002-7.464-3.106-7.464-8.145 0-4.663 3.6-8.33 7.979-8.33M19.566.058s-.183 3.316-.183 5.778v13.513c0 1.85.058 2.102.31 2.27l.803.217c.003.011.067.266.067.577h-7.761c0-.302.063-.565.066-.577l.83-.218v-.016c.259-.16.326-.32.326-2.27V4.487c0-2.201-.1-2.453-.36-2.704l-.82-.25c0-.294.058-.478.058-.478.034-.01 3.057-.897 6.07-1.055zm44.693 0c0 .007-.193 3.319-.193 5.778v13.513c0 1.85.068 2.102.319 2.27l.803.217c.003.01.059.266.06.577h-7.762c0-.303.064-.566.067-.577l.829-.218-.009-.016c.26-.16.327-.32.327-2.27V4.487c0-2.201-.092-2.453-.344-2.704l-.837-.25c0-.294.067-.478.067-.478S60.618.159 63.648 0zM11.93 1.978c0 .443-.064.629-.067.635l-1.466.251c-.343.318-.443.796-.443 3.994v10.666c0 3.19.1 3.668.443 3.995l1.466.25s.067.194.067.637H2.445c0-.444.059-.636.059-.636l1.481-.251c.344-.327.444-.805.444-3.995V6.857c0-3.198-.1-3.667-.444-3.994l-1.481-.25s-.059-.193-.059-.636zm37.333 4.981c-1.758 0-2.177 3.76-2.177 7.175 0 3.834.427 7.887 2.445 7.887 1.817 0 2.009-3.885 2.009-7.267 0-3.801-.41-7.795-2.268-7.795zm23.426-.084c-1.18 0-1.916 1.95-1.917 4.94 0 .159.059.226.251.226l2.596-.1c.377-.135.603-.956.603-2.362 0-1.758-.486-2.713-1.541-2.713z"/></g><defs><clipPath id="a"><path fill="#fff" d="M0 0h356v132H0z"/></clipPath></defs></svg>