<?xml version="1.0" encoding="utf-8"?>
<!-- Generator: Adobe Illustrator 27.0.0, SVG Export Plug-In . SVG Version: 6.00 Build 0)  -->
<svg version="1.1" id="Livello_1" xmlns="http://www.w3.org/2000/svg" xmlns:xlink="http://www.w3.org/1999/xlink" x="0px" y="0px"
	 viewBox="0 0 250 43.3" style="enable-background:new 0 0 250 43.3;" xml:space="preserve">
<style type="text/css">
	.st0{clip-path:url(#SVGID_00000160896995589250347840000003285833659157444009_);}
	.st1{fill:#000F66;}
	.st2{clip-path:url(#SVGID_00000161631831169480073850000012406154626555093409_);}
	.st3{fill:#E8861E;}
</style>
<g id="Raggruppa_16" transform="translate(-58 -52.34)">
	<g id="Raggruppa_15" transform="translate(58 52.34)">
		<g>
			<defs>
				<rect id="SVGID_1_" x="0" width="250.1" height="43.3"/>
			</defs>
			<clipPath id="SVGID_00000018212455418465970770000005900330215756639112_">
				<use xlink:href="#SVGID_1_"  style="overflow:visible;"/>
			</clipPath>
			
				<g id="Raggruppa_2" transform="translate(0 0)" style="clip-path:url(#SVGID_00000018212455418465970770000005900330215756639112_);">
				<g id="Raggruppa_1" transform="translate(101.99 0)">
					<path id="Tracciato_1" class="st1" d="M0,30.4h8.4c0.1,3,3,5.5,6.9,5.5c3.8,0,6.3-2.1,6.3-5c0-2.3-1.7-3.9-5.3-5l-5.1-1.5
						C2,21.9,0.3,16.4,0.3,12.6C0.3,5.2,6.8,0,14.8,0c7.9,0,14,4.8,14,12.8h-8.4c0-3-2.1-5.3-5.7-5.3c-3.3,0-5.8,2.2-5.8,5
						c0,1,0.3,3.2,4.7,4.4l4.7,1.3C24.5,20.1,30,23.3,30,30.4c0,8.3-7.1,12.9-15,12.9C6.1,43.3,0,37.8,0,30.4"/>
				</g>
			</g>
		</g>
		<g id="Raggruppa_3" transform="translate(140.929 0.729)">
			<path id="Tracciato_3" class="st1" d="M31.5,0v7.5H19.9v34.4h-8.4V7.5H0V0H31.5z"/>
		</g>
		<g id="Raggruppa_4" transform="translate(225.791 0.729)">
			<path id="Tracciato_4" class="st1" d="M0,0v41.9h24.3v-7.5H8.4V0H0z"/>
		</g>
		<g id="Raggruppa_5" transform="translate(53.757 0.729)">
			<path id="Tracciato_5" class="st1" d="M24.7,0h-9.1L0,41.9h9l3.3-10h0l2.5-7.4h0l5.3-15.9l11.2,33.2h8.9L24.7,0z"/>
		</g>
		<g id="Raggruppa_6" transform="translate(184.848 0.729)">
			<path id="Tracciato_6" class="st1" d="M8.4,14.1V7.5h17.8V0H0v17.4h8.4L8.4,14.1z"/>
		</g>
		<path id="Tracciato_7" class="st1" d="M208.9,18.2h-15.6v7.6h15.6V18.2z"/>
		<g id="Raggruppa_7" transform="translate(184.848 25.76)">
			<path id="Tracciato_8" class="st1" d="M8.4,9.4V0H0v16.8h26.8V9.4H8.4z"/>
		</g>
		<g>
			<defs>
				<rect id="SVGID_00000181792756178888975240000006470200044397653673_" x="0" width="250.1" height="43.3"/>
			</defs>
			<clipPath id="SVGID_00000051343782078262940850000000589137253152664226_">
				<use xlink:href="#SVGID_00000181792756178888975240000006470200044397653673_"  style="overflow:visible;"/>
			</clipPath>
			
				<g id="Raggruppa_14" transform="translate(0 0)" style="clip-path:url(#SVGID_00000051343782078262940850000000589137253152664226_);">
				<g id="Raggruppa_8" transform="translate(0 11.058)">
					<path id="Tracciato_9" class="st1" d="M10.5,0v10.5H2.7C1.2,10.5,0,9.3,0,7.8V2.7C0,1.2,1.2,0,2.7,0c0,0,0,0,0,0H10.5z"/>
				</g>
				<g id="Raggruppa_9" transform="translate(10.495 21.553)">
					<path id="Tracciato_10" class="st1" d="M10.5,2.7v5.1c0,1.5-1.2,2.7-2.7,2.7c0,0,0,0,0,0H2.7C1.2,10.5,0,9.3,0,7.8c0,0,0,0,0,0
						V0h7.8C9.3,0,10.5,1.2,10.5,2.7C10.5,2.7,10.5,2.7,10.5,2.7"/>
				</g>
				<g id="Raggruppa_10" transform="translate(10.495 0.594)">
					<path id="Tracciato_11" class="st1" d="M2.7,0h5.1c1.5,0,2.7,1.2,2.7,2.7c0,0,0,0,0,0v5.1c0,1.5-1.2,2.7-2.7,2.7H0V2.7
						C0,1.2,1.2,0,2.7,0C2.7,0,2.7,0,2.7,0"/>
				</g>
				<g id="Raggruppa_11" transform="translate(35.157 21.658)">
					<path id="Tracciato_12" class="st3" d="M0,10.5V0h7.8c1.5,0,2.7,1.2,2.7,2.7v5.1c0,1.5-1.2,2.7-2.7,2.7c0,0,0,0,0,0H0z"/>
				</g>
				<g id="Raggruppa_12" transform="translate(24.662 11.163)">
					<path id="Tracciato_13" class="st3" d="M0,7.8V2.7C0,1.2,1.2,0,2.7,0h5.1c1.5,0,2.7,1.2,2.7,2.7v7.8H2.7C1.2,10.5,0,9.3,0,7.8
						C0,7.8,0,7.8,0,7.8"/>
				</g>
				<g id="Raggruppa_13" transform="translate(24.662 32.123)">
					<path id="Tracciato_14" class="st3" d="M7.8,10.5H2.7C1.2,10.5,0,9.3,0,7.8c0,0,0,0,0,0V2.7C0,1.2,1.2,0,2.7,0c0,0,0,0,0,0h7.8
						v7.8C10.5,9.3,9.3,10.5,7.8,10.5C7.8,10.5,7.8,10.5,7.8,10.5"/>
				</g>
			</g>
		</g>
	</g>
</g>
</svg>
