<svg viewBox="0 0 553.15 549.11" xmlns="http://www.w3.org/2000/svg"><path d="m329.39 231.78a123.59 123.59 0 0 0 37-25q36.4-35.2 36.4-85.7 0-50.69-36.4-85.9t-88.79-35.18q-52.19 0-88.42 35.21t-36.18 85.9q0 50.49 36.23 85.7a124.83 124.83 0 0 0 30 21.74v120.75h69.08q36.46 0 57.85-17t21.36-45.69q-.09-39.99-38.13-54.83zm-92-14.19v-89h24.61q65 0 65 47.12 0 47-64.36 47h-8.64a102.29 102.29 0 0 1 -16.62-5.12zm-34-22.59q-30.68-30.15-30.66-73.89 0-43.94 30.66-74.06t74.91-30.16q44.09 0 74.4 30.16t30.3 74.06q0 43.74-30.31 73.89a108.31 108.31 0 0 1 -18 14.43q12.09-14.77 12.12-35.11 0-28.53-19.95-44.76t-58.59-16.21h-49.13v94.56a109.31 109.31 0 0 1 -15.77-12.91zm128.73 126.1q-15.67 13-45.94 13h-48.8v-96.1h6.84a135.19 135.19 0 0 0 33.38 4 140.38 140.38 0 0 0 25.1-2.19q45.1 7.59 45.14 46.45 0 21.83-15.72 34.84z" fill="#c60046"/><g fill="#fff"><path d="m.7 400h16.91q13.31 0 20.16 5.57t6.86 15.43q0 11.73-11.69 18.06 18.77 4.06 18.77 20.56 0 9.9-7.36 15.72t-19.89 5.84h-23.76zm6.3 5.26v32.36h8.7q22.13 0 22.13-16.15t-22.37-16.21zm0 37.64v33.1h16.77q10.4 0 15.8-4.48a14.72 14.72 0 0 0 5.4-12q.03-16.62-23.97-16.62z" stroke="#0b090d" stroke-miterlimit="10" stroke-width="1.41"/><path d="m121.93 399.45 37.51 81.74h-6.57l-12.87-28.06h-39.66l-12.79 28.06h-6.55l37.52-81.74zm15.7 48.46-17.49-38.23-17.41 38.23z" stroke="#0b090d" stroke-miterlimit="10" stroke-width="1.41"/><path d="m226.62 399q18 0 30.53 12.11a41.06 41.06 0 0 1 0 59q-12.51 12.11-30.53 12.11t-30.4-12.11a41.18 41.18 0 0 1 0-59q12.47-12.11 30.4-12.11zm.24 77.44a35 35 0 0 0 25.59-10.37 36.25 36.25 0 0 0 0-50.89 34.88 34.88 0 0 0 -25.59-10.37 35.31 35.31 0 0 0 -25.76 10.37 36 36 0 0 0 0 50.89 35.39 35.39 0 0 0 25.76 10.36z" stroke="#0b090d" stroke-miterlimit="10" stroke-width="1.41"/><path d="m309 400h16.9q13.31 0 20.16 5.57c4.56 3.72 6.86 8.85 6.86 15.4q0 11.73-11.68 18.06 18.76 4.11 18.76 20.6 0 9.9-7.35 15.72t-19.91 5.84h-23.74zm6.28 5.22v32.36h8.72q22.14 0 22.12-16.15t-22.34-16.21zm0 37.64v33.14h16.79q10.4 0 15.79-4.48a14.69 14.69 0 0 0 5.4-12q0-16.62-23.93-16.62z" stroke="#0b090d" stroke-miterlimit="10" stroke-width="1.41"/><path d="m430.21 399.45 37.51 81.74h-6.59l-12.83-28.06h-39.69l-12.79 28.06h-6.59l37.52-81.74zm15.69 48.46-17.49-38.23-17.41 38.23z" stroke="#0b090d" stroke-miterlimit="10" stroke-width="1.41"/><path d="m501.45 400h16.9q13.29 0 20.16 5.57t6.84 15.4q0 11.73-11.66 18.06 18.76 4.06 18.76 20.56 0 9.9-7.35 15.72t-19.9 5.84h-23.75zm6.27 5.22v32.36h8.71q22.13 0 22.13-16.15t-22.36-16.17zm0 37.64v33.14h16.79c6.91 0 12.19-1.49 15.79-4.48a14.67 14.67 0 0 0 5.4-12q0-16.62-23.92-16.62z" stroke="#0b090d" stroke-miterlimit="10" stroke-width="1.41"/><path d="m28.26 519.25v2.67a24 24 0 0 0 -11.26-3.06 13.35 13.35 0 0 0 -9.89 4 13.71 13.71 0 0 0 -4 10 13.51 13.51 0 0 0 4 10 14 14 0 0 0 10.19 3.93 24.42 24.42 0 0 0 11.3-3.25v2.54a23.8 23.8 0 0 1 -11.23 3 16.67 16.67 0 0 1 -12.07-4.64 16.25 16.25 0 0 1 .1-23.2 16.44 16.44 0 0 1 11.74-4.68 26.61 26.61 0 0 1 11.12 2.69z"/><path d="m62.69 516.59a16.47 16.47 0 0 1 11.91 4.73 16 16 0 0 1 0 23.06 16.43 16.43 0 0 1 -11.91 4.73 16.34 16.34 0 0 1 -11.87-4.73 16.08 16.08 0 0 1 0-23.06 16.38 16.38 0 0 1 11.87-4.73zm.09 30.26a13.66 13.66 0 0 0 10-4.05 14.19 14.19 0 0 0 0-19.89 13.62 13.62 0 0 0 -10-4 13.84 13.84 0 0 0 -10.07 4 14.11 14.11 0 0 0 0 19.89 13.88 13.88 0 0 0 10.07 4.05z"/><path d="m114 531.73 12-14.73h2.47v31.7h-2.47v-28.12l-12 14.82-12.11-14.82v28.12h-2.5v-31.7h2.46z"/><path d="m164.2 531.73 12-14.73h2.48v31.7h-2.48v-28.12l-12.02 14.82-12.1-14.82v28.12h-2.46v-31.7h2.46z"/><path d="m223.32 517h2.46v17.29q0 7.11-3.7 11a13.87 13.87 0 0 1 -19.14 0q-3.69-3.81-3.7-10.44v-17.85h2.47v17.77c0 3.79 1 6.74 3 8.87a11 11 0 0 0 15.58 0q3-3.24 3-9.17z"/><path d="m274.87 517v31.7h-2l-24.12-27.7v27.7h-2.45v-31.7h2.07l24.05 27.71v-27.71z"/><path d="m298.52 517v31.7h-2.44v-31.7z"/><path d="m346.13 519.25v2.67a24 24 0 0 0 -11.3-3.06 13.32 13.32 0 0 0 -9.87 4 13.64 13.64 0 0 0 -4 10 13.44 13.44 0 0 0 4 10 13.92 13.92 0 0 0 10.19 3.93 24.31 24.31 0 0 0 11.27-3.25v2.54a23.77 23.77 0 0 1 -11.23 3 16.68 16.68 0 0 1 -12.06-4.64 16.25 16.25 0 0 1 .1-23.2 16.45 16.45 0 0 1 11.77-4.65 26.73 26.73 0 0 1 11.13 2.66z"/><path d="m379.74 516.78 14.64 31.92h-2.56l-5-11h-15.52l-5 11h-2.57l14.67-31.92zm6.13 18.92-6.87-14.93-6.8 14.93z"/><path d="m430.28 517v2h-11.89v29.7h-2.47v-29.7h-11.92v-2z"/><path d="m450.52 517v31.7h-2.46v-31.7z"/><path d="m487.14 516.59a16.53 16.53 0 0 1 11.92 4.73 16.06 16.06 0 0 1 0 23.06 17.32 17.32 0 0 1 -23.79 0 16.11 16.11 0 0 1 0-23.06 16.38 16.38 0 0 1 11.87-4.73zm.1 30.26a13.62 13.62 0 0 0 10-4.05 14.16 14.16 0 0 0 0-19.89 13.58 13.58 0 0 0 -10-4 13.78 13.78 0 0 0 -10.06 4 14.06 14.06 0 0 0 0 19.89 13.82 13.82 0 0 0 10.06 4.05z"/><path d="m552.45 517v31.7h-2l-24.12-27.7v27.7h-2.45v-31.7h2.12l24 27.71v-27.71z"/></g></svg>