<svg id="Raggruppa_704" data-name="Raggruppa 704" xmlns="http://www.w3.org/2000/svg" xmlns:xlink="http://www.w3.org/1999/xlink" width="249.308" height="73.708" viewBox="0 0 249.308 73.708">
  <defs>
    <clipPath id="clip-path">
      <rect id="Rettangolo_2" data-name="Rettangolo 2" width="249.308" height="73.707" fill="none"/>
    </clipPath>
  </defs>
  <g id="Raggruppa_1" data-name="Raggruppa 1" clip-path="url(#clip-path)">
    <path id="Tracciato_1" data-name="Tracciato 1" d="M45.066,48l-1.853-1.853A3.585,3.585,0,0,0,38,45.895l-.076.076-.506.506-1.2,1.2L35.9,48l-.145.145.01,0a3.868,3.868,0,0,0,.135,5.308l1.853,1.853a3.868,3.868,0,0,0,5.308.135l0,.01.145-.145.324-.325,1.2-1.2.506-.506.076-.076A3.585,3.585,0,0,0,45.066,48" transform="translate(-22.267 -28.738)" fill="#013b59"/>
    <path id="Tracciato_2" data-name="Tracciato 2" d="M85.309,43.083l.289-.289c5.711-5.712,4.766-14.114-.946-19.825l-5.574-5.575a43.948,43.948,0,0,0-7.7,2.3,11.684,11.684,0,0,1,1.316,1.132l7.054,7.054c3.013,3.014,3.959,6.994.946,10.007l-4,4-4,4a7.615,7.615,0,0,1-1.626,1.206,43.793,43.793,0,0,0,7.844,2.394l4.477-4.477Z" transform="translate(-45.497 -11.136)" fill="#b1b2b2"/>
    <path id="Tracciato_3" data-name="Tracciato 3" d="M15.514,34.025,9.184,27.694a7.766,7.766,0,0,1,0-10.953l4-4,4-4a6.627,6.627,0,0,1,1.543-1.156A31.684,31.684,0,0,1,29.118,2.391c-5.4-3.442-12.06-3.342-16.843,1.441l-.289.289L10.06,6.047,5.51,10.6,4.275,11.832l-.551.551.037.017a14.723,14.723,0,0,0,.514,20.2l7.054,7.054a14.712,14.712,0,0,0,17.4,2.477,28.611,28.611,0,0,1-13.214-8.11" transform="translate(0 0)" fill="#013b59"/>
    <path id="Tracciato_4" data-name="Tracciato 4" d="M235.468,162.99l2.273-.751a2.779,2.779,0,0,0,2.933,2.859c1.76,0,3.061-1.063,3.061-2.346,0-1.228-1.228-1.558-2.255-1.888l-1.228-.4c-1.191-.385-3.189-1.155-3.189-3.409,0-2.456,2.346-4.747,5.591-4.747,2.713,0,4.179,1.595,4.344,3.354l-2.255.862a2.36,2.36,0,0,0-2.493-2.126c-1.54,0-2.713.953-2.713,2.089,0,1.191,1.338,1.686,2.273,2l1.393.477c1.173.385,3.079.971,3.079,3.171,0,2.548-2.474,5.077-5.994,5.077-2.566,0-4.6-1.375-4.82-4.216" transform="translate(-150.758 -97.512)" fill="#275972"/>
    <path id="Tracciato_5" data-name="Tracciato 5" d="M271.374,152.1h2.181c-.348,2.034-.715,4.069-1.081,6.1h.036a4.439,4.439,0,0,1,3.611-1.925c1.851,0,3.391,1.21,2.878,4.069l-1.136,6.415H275.7l.953-5.462c.312-1.687-.128-2.969-1.631-2.969a3.33,3.33,0,0,0-3.116,3.042l-.935,5.389h-2.181Z" transform="translate(-172.092 -97.382)" fill="#275972"/>
    <path id="Tracciato_6" data-name="Tracciato 6" d="M300.481,172.057c0-1.979,1.8-3.061,3.977-3.5,2.309-.458,3.391-.568,3.391-1.668,0-.825-.623-1.393-1.631-1.393a2.822,2.822,0,0,0-2.566,1.778l-1.906-.7a5.166,5.166,0,0,1,4.875-2.859c2.31,0,3.794,1.155,3.373,3.556l-.66,3.739a11.022,11.022,0,0,0-.238,3.189h-2.163a5.124,5.124,0,0,1,.055-1.576h-.037a4.262,4.262,0,0,1-3.611,1.888c-1.521,0-2.859-.715-2.859-2.456m3.776.77a3.251,3.251,0,0,0,3.006-2.529l.165-.99a9.184,9.184,0,0,1-2.218.66c-.971.22-2.328.715-2.328,1.778,0,.733.587,1.081,1.375,1.081" transform="translate(-192.382 -104.82)" fill="#275972"/>
    <path id="Tracciato_7" data-name="Tracciato 7" d="M331.339,164.011h2.126c-.092.568-.2,1.118-.293,1.7h.036a4.847,4.847,0,0,1,3.813-2c2.236,0,3.684,1.558,3.684,4.161,0,3.446-2.584,6.635-5.718,6.635a3.155,3.155,0,0,1-3.025-1.851c-.312,1.869-.641,3.721-.971,5.572H328.81Zm3.537,8.449c1.961,0,3.519-2,3.519-4.051a2.336,2.336,0,0,0-2.327-2.639,3.951,3.951,0,0,0-3.593,4.032,2.4,2.4,0,0,0,2.4,2.657" transform="translate(-210.52 -104.82)" fill="#275972"/>
    <path id="Tracciato_8" data-name="Tracciato 8" d="M366.442,156.377H368.6l-1.8,10.191h-2.181Zm1.888-4.582a1.126,1.126,0,0,1,1.191,1.155,1.757,1.757,0,0,1-1.687,1.686,1.135,1.135,0,0,1-1.191-1.191,1.724,1.724,0,0,1,1.686-1.65" transform="translate(-233.452 -97.186)" fill="#275972"/>
    <path id="Tracciato_9" data-name="Tracciato 9" d="M380.046,164.01h2.126c-.092.55-.183,1.081-.293,1.631h.037a4.526,4.526,0,0,1,3.648-1.924c1.888,0,3.391,1.21,2.878,4.069L387.3,174.2h-2.163l.953-5.462c.312-1.686-.128-2.969-1.649-2.969a3.315,3.315,0,0,0-3.1,3.043l-.935,5.389h-2.182Z" transform="translate(-242.162 -104.82)" fill="#275972"/>
    <path id="Tracciato_10" data-name="Tracciato 10" d="M409.209,175.594l2.108-.714a2.184,2.184,0,0,0,2.4,1.8c2.071,0,3.152-1.576,3.519-3.574l.128-.7h-.037a4.438,4.438,0,0,1-3.574,1.76c-2.365,0-3.886-1.558-3.886-4.105,0-3.3,2.548-6.342,5.645-6.342a3.039,3.039,0,0,1,3.042,1.87h.037l.275-1.576h2.144l-1.594,9.091c-.733,4.143-3.281,5.425-5.975,5.425-1.888,0-3.776-.66-4.234-2.933m5.334-3.5a3.808,3.808,0,0,0,3.537-3.794,2.359,2.359,0,0,0-2.42-2.529,3.728,3.728,0,0,0-3.464,3.776,2.319,2.319,0,0,0,2.346,2.548" transform="translate(-261.995 -104.82)" fill="#275972"/>
    <path id="Tracciato_11" data-name="Tracciato 11" d="M456.8,162.99l2.273-.751A2.778,2.778,0,0,0,462,165.1c1.76,0,3.061-1.063,3.061-2.346,0-1.228-1.228-1.558-2.255-1.888l-1.228-.4c-1.191-.385-3.189-1.155-3.189-3.409,0-2.456,2.346-4.747,5.591-4.747,2.713,0,4.179,1.595,4.344,3.354l-2.254.862a2.36,2.36,0,0,0-2.493-2.126c-1.54,0-2.713.953-2.713,2.089,0,1.191,1.338,1.686,2.273,2l1.393.477c1.173.385,3.079.971,3.079,3.171,0,2.548-2.475,5.077-5.994,5.077-2.565,0-4.6-1.375-4.82-4.216" transform="translate(-292.463 -97.512)" fill="#275972"/>
    <path id="Tracciato_12" data-name="Tracciato 12" d="M490.474,170.188a6.441,6.441,0,0,1,6.287-6.471,4.057,4.057,0,0,1,4.363,4.344,6.385,6.385,0,0,1-6.269,6.452,4.057,4.057,0,0,1-4.38-4.326m4.748,2.273a3.9,3.9,0,0,0,3.592-4.087,2.343,2.343,0,0,0-2.419-2.6c-2.108,0-3.61,2.034-3.61,4.069a2.371,2.371,0,0,0,2.438,2.621" transform="translate(-314.025 -104.82)" fill="#275972"/>
    <path id="Tracciato_13" data-name="Tracciato 13" d="M525.463,152.1h2.181l-2.584,14.663h-2.181Z" transform="translate(-334.772 -97.382)" fill="#275972"/>
    <path id="Tracciato_14" data-name="Tracciato 14" d="M537.825,170.93l1.136-6.4h2.181l-.99,5.627c-.33,1.851.348,2.823,1.594,2.823a3.242,3.242,0,0,0,2.951-2.9l.972-5.553h2.181l-1.246,7a11.6,11.6,0,0,0-.22,3.189H544.2a6.763,6.763,0,0,1,.055-1.43h-.037a4.1,4.1,0,0,1-3.446,1.742c-2.126,0-3.446-1.265-2.951-4.106" transform="translate(-344.275 -105.342)" fill="#275972"/>
    <path id="Tracciato_15" data-name="Tracciato 15" d="M570.311,166.315c.293-1.668.605-3.354.9-5.04h-2.016l.348-1.961h2.017c.165-.972.33-1.961.513-2.933h2.162c-.165.971-.33,1.961-.513,2.933h2.859l-.348,1.961h-2.859c-.257,1.43-.495,2.859-.751,4.289-.183.99-.385,2.273,1.008,2.273a3.5,3.5,0,0,0,1.521-.4l-.349,1.961a4.332,4.332,0,0,1-1.961.421c-3.116,0-2.713-2.419-2.529-3.5" transform="translate(-364.425 -100.123)" fill="#275972"/>
    <path id="Tracciato_16" data-name="Tracciato 16" d="M591.592,156.377h2.163l-1.8,10.191h-2.181Zm1.888-4.582a1.126,1.126,0,0,1,1.192,1.155,1.757,1.757,0,0,1-1.687,1.686,1.135,1.135,0,0,1-1.191-1.191,1.724,1.724,0,0,1,1.686-1.65" transform="translate(-377.604 -97.186)" fill="#275972"/>
    <path id="Tracciato_17" data-name="Tracciato 17" d="M603.636,170.188a6.441,6.441,0,0,1,6.287-6.471,4.057,4.057,0,0,1,4.362,4.344,6.385,6.385,0,0,1-6.269,6.452,4.057,4.057,0,0,1-4.38-4.326m4.747,2.273a3.9,3.9,0,0,0,3.592-4.087,2.343,2.343,0,0,0-2.419-2.6c-2.108,0-3.611,2.034-3.611,4.069a2.371,2.371,0,0,0,2.438,2.621" transform="translate(-386.477 -104.82)" fill="#275972"/>
    <path id="Tracciato_18" data-name="Tracciato 18" d="M637.855,164.01h2.126c-.092.55-.183,1.081-.293,1.631h.037a4.526,4.526,0,0,1,3.647-1.924c1.888,0,3.391,1.21,2.878,4.069l-1.136,6.415H642.95l.953-5.462c.312-1.686-.128-2.969-1.649-2.969a3.314,3.314,0,0,0-3.1,3.043l-.935,5.389H636.04Z" transform="translate(-407.223 -104.82)" fill="#275972"/>
    <path id="Tracciato_19" data-name="Tracciato 19" d="M667.12,171.653l2.145-.66a2.06,2.06,0,0,0,2.053,1.723,1.649,1.649,0,0,0,1.833-1.411c0-.77-.77-.953-1.43-1.173l-.99-.312c-.66-.2-2.328-.715-2.328-2.529,0-1.888,1.8-3.574,4.271-3.574,1.961,0,3.208,1.081,3.391,2.548l-2.144.66a1.569,1.569,0,0,0-1.631-1.43,1.506,1.506,0,0,0-1.65,1.32c0,.788.953,1.118,1.723,1.338l.788.238c.861.275,2.383.66,2.383,2.438,0,1.979-1.906,3.684-4.583,3.684-2.2,0-3.629-1.155-3.831-2.859" transform="translate(-427.122 -104.82)" fill="#275972"/>
    <path id="Tracciato_20" data-name="Tracciato 20" d="M172.362,7.54h25.023L194.9,14.36H172.362a7.629,7.629,0,0,0-7.609,7.609v9.8a7.63,7.63,0,0,0,7.609,7.609H194.9l2.482,6.821H172.362a14.473,14.473,0,0,1-14.43-14.43v-9.8a14.473,14.473,0,0,1,14.43-14.43" transform="translate(-101.116 -4.827)" fill="#013b59"/>
    <path id="Tracciato_21" data-name="Tracciato 21" d="M303.107,11.975a8.213,8.213,0,0,1,14.6,0l12.754,24.7,4.913,9.517H327.69l-26,0,2.71-6.824,19.767,0-1.391-2.693L311.639,15.106a1.389,1.389,0,0,0-2.469,0L298.032,36.675l-4.913,9.517H285.44l4.913-9.517Z" transform="translate(-182.752 -4.821)" fill="#013b59"/>
    <path id="Tracciato_22" data-name="Tracciato 22" d="M475.923,45.748h-19.4a14.473,14.473,0,0,1-14.43-14.43V7.088h6.82V31.319a7.63,7.63,0,0,0,7.609,7.609H473.2Z" transform="translate(-283.051 -4.538)" fill="#013b59"/>
    <path id="Tracciato_23" data-name="Tracciato 23" d="M515.968,7.54h7.679l4.913,9.515L539.7,38.624a1.39,1.39,0,0,0,2.469,0L553.3,17.055l4.913-9.515h7.68l-4.913,9.515-12.754,24.7a8.213,8.213,0,0,1-14.6,0l-12.754-24.7Z" transform="translate(-330.348 -4.827)" fill="#013b59"/>
    <rect id="Rettangolo_1" data-name="Rettangolo 1" width="6.82" height="38.66" transform="translate(242.488 2.712)" fill="#013b59"/>
  </g>
</svg>
