<svg xmlns="http://www.w3.org/2000/svg" id="Livello_1" viewBox="0 0 264.95 79.84"><defs><style>.cls-1{fill:#e83f4f;}.cls-2{fill:#4f6a7e;}</style></defs><g><path class="cls-2" d="M0,36.57v-3.36H7.67c5.89,0,10.53,3.91,10.53,10.87s-4.7,10.78-10.56,10.78H0v-3.36H7.52c3.75,0,6.87-2.41,6.87-7.42s-3.08-7.51-6.84-7.51H0Z"></path><path class="cls-2" d="M30.73,51.84c-3.64,0-7.24-2.59-7.24-7.82s3.61-7.81,7.24-7.81,7.27,2.6,7.27,7.81-3.61,7.82-7.27,7.82m0-19.09c-5.68,0-10.99,4.19-10.99,11.27s5.32,11.31,10.99,11.31,11.02-4.19,11.02-11.31-5.34-11.27-11.02-11.27"></path></g><polygon class="cls-2" points="41.75 33.21 41.75 36.66 48.77 36.66 48.77 54.86 52.43 54.86 52.43 36.66 59.49 36.66 59.49 33.21 41.75 33.21"></polygon><polygon class="cls-2" points="53.56 33.21 53.56 36.66 60.58 36.66 60.58 54.86 64.25 54.86 64.25 36.66 71.31 36.66 71.31 33.21 53.56 33.21"></polygon><g><path class="cls-2" d="M82.29,51.84c-3.64,0-7.23-2.59-7.23-7.82s3.6-7.81,7.23-7.81,7.27,2.6,7.27,7.81-3.6,7.82-7.27,7.82m0-19.09c-5.68,0-10.99,4.19-10.99,11.27s5.32,11.31,10.99,11.31,11.03-4.19,11.03-11.31-5.35-11.27-11.03-11.27"></path><path class="cls-2" d="M117.75,39.78c0-3.66-2.6-6.57-6.78-6.57h-8.31v3.23h7.63c2.26,0,3.72,1.32,3.72,3.33s-1.47,3.3-3.72,3.3h-7.63v3.24h6.38l4.55,8.55h4.16l-4.89-8.91c3.02-.73,4.89-3.08,4.89-6.17"></path><path class="cls-2" d="M205.89,39.78c0-3.66-2.61-6.57-6.78-6.57h-8.31v3.23h7.63c2.26,0,3.73,1.32,3.73,3.33s-1.47,3.3-3.73,3.3h-7.63v3.24h6.38l4.55,8.55h4.16l-4.89-8.91c3.02-.73,4.89-3.08,4.89-6.17"></path></g><polygon class="cls-2" points="120.64 33.21 120.64 54.86 134.02 54.86 134.02 51.45 124.3 51.45 124.3 45.7 133.11 45.7 133.11 42.37 124.3 42.37 124.3 36.63 134.02 36.63 134.02 33.21 120.64 33.21"></polygon><path class="cls-2" d="M146.02,42.52l-3.12-.64c-1.68-.36-2.53-1.4-2.53-2.78,0-1.64,1.53-3.11,3.72-3.11,2.91,0,4.03,1.98,4.25,3.32l3.3-1.04c-.49-2.41-2.47-5.53-7.57-5.53-4.04,0-7.36,2.99-7.36,6.63,0,3.24,2.2,5.4,5.49,6.08l3.06,.64c1.86,.4,2.9,1.53,2.9,2.93,0,1.68-1.34,3-3.94,3-3.12,0-4.74-2.08-4.95-4.34l-3.42,.98c.34,3.11,2.87,6.66,8.37,6.66,4.95,0,7.66-3.21,7.66-6.57,0-3.06-2.04-5.46-5.86-6.23"></path><polygon class="cls-2" points="154.69 33.21 154.69 54.86 168.06 54.86 168.06 51.45 158.35 51.45 158.35 45.7 167.15 45.7 167.15 42.37 158.35 42.37 158.35 36.63 168.06 36.63 168.06 33.21 154.69 33.21"></polygon><path class="cls-2" d="M181.83,33.21h-4.24l-8.43,21.65h3.88l1.67-4.5,.32-.86h9.22l2.01,5.36h4l-8.44-21.65Zm-5.58,13.05l.08-.22,3.3-8.84,.34,.9,3.06,8.16h-6.78Z"></path><path class="cls-2" d="M224.7,47.05c-.73,2.44-2.81,4.76-6.44,4.76s-7.17-2.69-7.17-7.76,3.57-7.85,7.15-7.85,5.65,2.11,6.29,4.73l3.45-1.15c-.98-3.79-4.25-7.03-9.74-7.03s-10.9,4.25-10.9,11.31,5.1,11.27,10.93,11.27c5.53,0,8.82-3.51,9.8-7.18l-3.36-1.09Z"></path><polygon class="cls-2" points="244.6 33.21 244.6 42.16 234.44 42.16 234.44 33.21 230.78 33.21 230.78 54.86 234.44 54.86 234.44 45.61 244.6 45.61 244.6 54.86 248.3 54.86 248.3 33.21 244.6 33.21"></polygon><g><path class="cls-1" d="M264.75,.08c-.16-.1-.36-.11-.53-.02l-46.24,25.23c-.21,.11-.29,.34-.2,.54,.07,.16,.25,.27,.44,.27,.04,0,.08,0,.12-.02l35.24-10.56,4.22,10.36c.1,.15,.3,.23,.49,.21,.19-.03,.35-.16,.39-.34l6.25-25.23c.04-.17-.03-.35-.19-.45"></path><path class="cls-1" d="M38.86,78.04h5.41v-1.07h-4.25v-8.27h-1.16v9.33Zm6.79-9.33v9.33h6.12v-1.07h-4.96v-3.15h3.99v-1.07h-3.99v-2.99h4.79v-1.07h-5.95Zm6.8,9.33h1.2l.99-2.52h4.07l.99,2.52h1.24l-3.55-9.33h-1.37l-3.56,9.33Zm2.53-3.57l1.68-4.49,1.69,4.49h-3.37Zm7.13-5.76v9.33h2.76c.96,0,1.79-.19,2.5-.58,.71-.39,1.25-.93,1.63-1.64,.38-.71,.57-1.52,.57-2.45s-.19-1.75-.57-2.45c-.38-.7-.92-1.25-1.63-1.63-.71-.39-1.54-.58-2.5-.58h-2.76Zm2.76,8.27h-1.6v-7.2h1.6c1.12,0,1.98,.32,2.59,.97,.61,.64,.91,1.52,.91,2.63s-.31,1.98-.92,2.63c-.61,.65-1.48,.97-2.59,.97m6.29-8.27v9.33h6.12v-1.07h-4.96v-3.15h3.99v-1.07h-3.99v-2.99h4.79v-1.07h-5.95Zm11.13,0h-3.57v9.33h1.16v-3.59h2.39l1.93,3.59h1.31l-2.09-3.81c.61-.17,1.09-.49,1.45-.97,.36-.48,.54-1.04,.54-1.69,0-.58-.13-1.08-.39-1.51-.26-.43-.62-.76-1.09-1-.47-.24-1.01-.35-1.63-.35m-2.41,4.68v-3.61h2.33c.61,0,1.09,.16,1.45,.49,.36,.33,.55,.77,.55,1.31s-.18,.99-.55,1.32c-.36,.33-.85,.49-1.47,.49h-2.32Zm7.83,1.6h-1.15c.03,.61,.19,1.16,.49,1.63,.3,.48,.72,.84,1.26,1.11,.54,.26,1.18,.39,1.91,.39,.65,0,1.22-.12,1.73-.35,.5-.23,.89-.56,1.17-.97s.42-.89,.42-1.43c0-.82-.28-1.41-.84-1.78-.56-.37-1.31-.63-2.24-.79-.59-.1-1.05-.2-1.39-.3-.34-.1-.61-.25-.83-.45-.21-.2-.32-.48-.32-.83,0-.49,.18-.87,.55-1.14,.36-.27,.86-.41,1.48-.41s1.14,.17,1.56,.49c.42,.33,.66,.77,.73,1.31h1.15c-.03-.56-.2-1.05-.49-1.49-.29-.43-.69-.77-1.2-1.01-.51-.24-1.09-.36-1.75-.36-.62,0-1.18,.11-1.66,.33-.49,.22-.86,.53-1.13,.94-.27,.4-.4,.87-.4,1.39,0,.82,.28,1.41,.83,1.77,.55,.36,1.29,.63,2.23,.79,.59,.1,1.05,.2,1.39,.3,.34,.1,.62,.26,.84,.47,.22,.21,.33,.5,.33,.87,0,.5-.2,.89-.59,1.17-.4,.28-.91,.42-1.55,.42-.71,0-1.3-.19-1.76-.57-.46-.38-.71-.88-.76-1.51m7.43-6.29v9.34h1.16v-4.21h4.82v4.21h1.16v-9.34h-1.16v4.07h-4.82v-4.07h-1.16Zm9.09,9.34h1.16v-9.33h-1.16v9.33Zm6.69-9.33h-3.59v9.33h1.16v-3.59h2.43c.61,0,1.15-.12,1.62-.35,.47-.24,.83-.57,1.09-1.01,.26-.43,.39-.94,.39-1.52s-.13-1.08-.38-1.51c-.25-.43-.61-.76-1.09-1-.47-.24-1.01-.35-1.63-.35m-2.43,4.68v-3.61h2.33c.61,0,1.1,.16,1.46,.49,.36,.32,.54,.76,.54,1.31s-.18,.99-.55,1.32c-.36,.33-.85,.49-1.47,.49h-2.32Zm6.81,3.65c-.19-.26-.45-.39-.77-.39-.28,0-.49,.07-.65,.22-.16,.15-.23,.33-.23,.55s.07,.41,.2,.53c.13,.12,.3,.19,.51,.19s.35-.05,.45-.16c0,.03,.01,.09,.01,.17,0,.28-.09,.52-.27,.73-.18,.21-.46,.32-.85,.33v.63c.59-.02,1.05-.19,1.38-.51,.33-.32,.5-.76,.5-1.33,0-.38-.1-.7-.29-.97m5.4,1.01h1.13v-7.2l5.01,7.2h1.07v-9.33h-1.13v7.2l-5.01-7.2h-1.07v9.33Zm9.16-9.33v9.33h6.12v-1.07h-4.96v-3.15h3.99v-1.07h-3.99v-2.99h4.79v-1.07h-5.95Zm7.56,9.33h5.41v-1.07h-4.25v-8.27h-1.16v9.33Zm10.41,0h1.13v-7.2l5.01,7.2h1.07v-9.33h-1.13v7.2l-5.01-7.2h-1.07v9.33Zm17.15-2.23c.38-.72,.57-1.53,.57-2.44s-.19-1.72-.57-2.44c-.38-.72-.9-1.28-1.58-1.69-.68-.41-1.44-.61-2.31-.61s-1.63,.2-2.31,.61c-.68,.41-1.2,.97-1.58,1.69-.38,.72-.57,1.53-.57,2.44s.19,1.72,.57,2.44c.38,.72,.9,1.28,1.58,1.69,.68,.41,1.44,.61,2.31,.61s1.63-.2,2.31-.61c.68-.41,1.2-.97,1.58-1.69m-6.74-.54c-.28-.55-.41-1.19-.41-1.9s.14-1.34,.41-1.9c.28-.56,.66-.99,1.15-1.31,.49-.31,1.06-.47,1.7-.47s1.21,.16,1.7,.47c.49,.32,.88,.75,1.15,1.31,.28,.56,.41,1.19,.41,1.9s-.14,1.34-.41,1.9c-.28,.56-.66,.99-1.15,1.31-.49,.32-1.06,.47-1.7,.47s-1.21-.16-1.7-.47c-.49-.32-.88-.75-1.15-1.31m12.48-6.57h-3.57v9.33h1.16v-3.59h2.39l1.93,3.59h1.31l-2.09-3.81c.6-.17,1.09-.49,1.45-.97,.36-.48,.54-1.04,.54-1.69,0-.58-.13-1.08-.39-1.51-.26-.43-.62-.76-1.09-1-.47-.24-1.01-.35-1.63-.35m-2.41,4.68v-3.61h2.33c.6,0,1.09,.16,1.45,.49,.36,.33,.55,.77,.55,1.31s-.18,.99-.55,1.32c-.36,.33-.85,.49-1.47,.49h-2.32Zm7.12-4.68v9.33h2.76c.96,0,1.79-.19,2.5-.58,.71-.39,1.25-.93,1.63-1.64,.38-.71,.57-1.52,.57-2.45s-.19-1.75-.57-2.45c-.38-.7-.92-1.25-1.63-1.63-.71-.39-1.54-.58-2.5-.58h-2.76Zm2.76,8.27h-1.6v-7.2h1.6c1.12,0,1.98,.32,2.59,.97,.61,.64,.91,1.52,.91,2.63s-.31,1.98-.92,2.63c-.61,.65-1.48,.97-2.59,.97"></path><path class="cls-1" d="M187.44,68.71v9.33h6.12v-1.07h-4.96v-3.15h3.99v-1.07h-3.99v-2.99h4.79v-1.07h-5.95Zm8.36,6.28h-1.15c.03,.61,.19,1.16,.49,1.63,.3,.47,.72,.84,1.26,1.11,.54,.26,1.18,.39,1.91,.39,.65,0,1.23-.11,1.73-.35s.89-.56,1.17-.97c.28-.42,.42-.89,.42-1.43,0-.82-.28-1.41-.84-1.78s-1.31-.63-2.24-.79c-.59-.1-1.05-.2-1.39-.3-.34-.1-.61-.25-.83-.45s-.32-.48-.32-.83c0-.49,.18-.87,.55-1.14,.36-.27,.86-.41,1.48-.41s1.14,.16,1.56,.49c.42,.33,.66,.77,.73,1.31h1.15c-.04-.56-.2-1.06-.49-1.49-.29-.43-.69-.77-1.2-1.01-.51-.24-1.09-.36-1.75-.36-.62,0-1.18,.11-1.66,.33s-.86,.54-1.13,.94c-.27,.4-.4,.87-.4,1.39,0,.82,.28,1.41,.83,1.77,.55,.36,1.29,.63,2.23,.79,.59,.1,1.05,.2,1.39,.3,.34,.1,.62,.26,.84,.47,.22,.21,.33,.5,.33,.87,0,.5-.2,.89-.59,1.17-.4,.28-.91,.42-1.55,.42-.71,0-1.3-.19-1.76-.57-.46-.38-.72-.88-.76-1.51m6.43-6.28v1.07h3.03v8.26h1.16v-8.26h3.03v-1.07h-7.21Z"></path></g></svg>