<?xml version="1.0" encoding="UTF-8"?>
<svg width="206px" height="50px" viewBox="0 0 206 50" version="1.1" xmlns="http://www.w3.org/2000/svg" xmlns:xlink="http://www.w3.org/1999/xlink">
    <title>Group 75</title>
    <defs>
        <polygon id="path-1" points="0 0 36.8027427 0 36.8027427 33.3364194 0 33.3364194"></polygon>
        <polygon id="path-3" points="0 2.56966329e-15 6.47320912 2.56966329e-15 6.47320912 6.34041199 0 6.34041199"></polygon>
    </defs>
    <g id="Symbols" stroke="none" stroke-width="1" fill="none" fill-rule="evenodd">
        <g id="Header" transform="translate(-50.000000, -27.000000)">
            <g id="Group-75" transform="translate(50.000000, 27.000000)">
                <g id="Group-3">
                    <mask id="mask-2" fill="white">
                        <use xlink:href="#path-1"></use>
                    </mask>
                    <g id="Clip-2"></g>
                    <path d="M8.33381553,23.8482236 C8.33381553,25.1414767 9.43322532,26.2394399 10.7264784,26.2394399 L11.2848629,26.2394399 L36.8027427,26.2394399 L36.8027427,27.3952668 C36.8027427,29.045828 36.224106,30.4490221 35.0697257,31.6034024 C33.9138989,32.7577827 32.5107048,33.3364194 30.8615901,33.3364194 L5.94115264,33.3364194 C4.29059137,33.3364194 2.88739729,32.7577827 1.73157042,31.6034024 C0.57719014,30.4490221 0,29.045828 0,27.3952668 L0,5.93941673 C0,4.29030205 0.57719014,2.88710797 1.73157042,1.73272769 C2.88739729,0.576900822 4.29059137,-0.000289318366 5.94115264,-0.000289318366 L30.8615901,-0.000289318366 C32.5107048,-0.000289318366 33.9138989,0.576900822 35.0697257,1.73272769 C36.224106,2.88710797 36.8027427,4.29030205 36.8027427,5.93941673 L36.8027427,7.17769934 L11.1300775,7.17769934 L10.7250318,7.17769934 C9.43177873,7.17769934 8.33236894,8.28000231 8.33236894,9.57180882 L8.33381553,10.1316399 L8.33381553,23.3997801 L8.33381553,23.8482236 Z" id="Fill-1" fill="#313C45" mask="url(#mask-2)"></path>
                </g>
                <path d="M164.429754,0.0286425182 L172.516202,0.0286425182 C174.249219,0.0286425182 175.817324,0.772190719 176.973151,2.01047332 L184.729777,10.6741118 L192.486402,2.01047332 C193.640782,0.772190719 195.208888,0.0286425182 196.941905,0.0286425182 L205.028353,0.0286425182 L188.937912,18.0184585 L188.937912,33.3667978 L180.604097,33.3667978 L180.604097,18.0184585 L164.429754,0.0286425182 Z" id="Fill-4" fill="#313C45"></path>
                <path d="M156.686292,3.08225321 C155.777832,1.18432473 153.798895,0.0299444509 151.736055,0.0299444509 L145.463633,0.0299444509 L128.796002,33.4476623 L138.3681,33.4476623 L150.332861,9.43568453 L156.356469,21.4829013 L159.822503,28.7447923 L162.215166,33.530118 L171.787264,33.530118 L156.686292,3.08225321 Z" id="Fill-6" fill="#313C45"></path>
                <path d="M151.282548,21.4010242 L164.650503,21.4010242 L162.009027,26.8474424 C161.431837,28.0842784 160.359912,28.6629152 158.874262,28.6629152 L145.506307,28.6629152 C146.249855,27.1772654 148.063881,23.5463199 148.146337,23.2164969 C148.724974,22.0606701 149.796899,21.4010242 151.282548,21.4010242" id="Fill-8" fill="#DAA135"></path>
                <path d="M40.4537959,26.2557864 L69.8138236,26.2557864 L70.2188693,26.2557864 C71.513569,26.2557864 72.615872,25.1534834 72.615872,23.8616769 L72.615872,22.6233943 C72.615872,21.3315878 71.5164622,20.2292848 70.2232091,20.2292848 L69.8167168,20.2292848 L46.3067064,20.2451973 C44.6575917,20.2451973 43.2543976,19.6665606 42.0985708,18.5107337 L42.0971242,18.5092871 C41.0020542,17.3722659 40.4537959,15.9994503 40.4537959,14.3937334 L40.4537959,5.97601551 C40.4537959,2.7370964 43.1401169,0.0348628631 46.3949485,0.0348628631 L75.0287872,0.0348628631 C78.2517938,0.0348628631 80.9699398,2.7370964 80.9699398,5.97601551 L80.9699398,7.1275026 L51.5867666,7.1275026 L51.1802743,7.1275026 C49.8870212,7.1275026 48.7847182,8.22835899 48.7847182,9.52161208 L48.7847182,10.7598947 C48.7847182,12.0517012 49.884128,13.1540042 51.1773811,13.1540042 L51.5824268,13.1540042 L75.0287872,13.1540042 C76.6779019,13.1540042 78.0810959,13.7326409 79.2369228,14.8884678 C80.3913031,16.042848 80.9699398,17.4460421 80.9699398,19.0966034 L80.9699398,27.4304189 C80.9699398,30.6751244 78.2517938,33.3715716 75.0287872,33.3715716 L46.3949485,33.3715716 C43.1401169,33.3715716 40.4537959,30.6751244 40.4537959,27.4304189 L40.4537959,26.2557864 Z" id="Fill-10" fill="#313C45"></path>
                <path d="M84.6262007,26.2557864 L113.986228,26.2557864 L114.391274,26.2557864 C115.685974,26.2557864 116.788277,25.1534834 116.788277,23.8616769 L116.788277,22.6233943 C116.788277,21.3315878 115.688867,20.2292848 114.395614,20.2292848 L113.989122,20.2292848 L90.4791112,20.2451973 C88.8299965,20.2451973 87.4268025,19.6665606 86.2709756,18.5107337 L86.269529,18.5092871 C85.174459,17.3722659 84.6262007,15.9994503 84.6262007,14.3937334 L84.6262007,5.97601551 C84.6262007,2.7370964 87.3125217,0.0348628631 90.5673533,0.0348628631 L119.201192,0.0348628631 C122.424199,0.0348628631 125.142345,2.7370964 125.142345,5.97601551 L125.142345,7.1275026 L95.7591714,7.1275026 L95.3526791,7.1275026 C94.059426,7.1275026 92.957123,8.22835899 92.957123,9.52161208 L92.957123,10.7598947 C92.957123,12.0517012 94.0565328,13.1540042 95.3497859,13.1540042 L95.7548316,13.1540042 L119.201192,13.1540042 C120.850307,13.1540042 122.253501,13.7326409 123.409328,14.8884678 C124.565154,16.042848 125.142345,17.4460421 125.142345,19.0966034 L125.142345,27.4304189 C125.142345,30.6751244 122.424199,33.3715716 119.201192,33.3715716 L90.5673533,33.3715716 C87.3125217,33.3715716 84.6262007,30.6751244 84.6262007,27.4304189 L84.6262007,26.2557864 Z" id="Fill-12" fill="#313C45"></path>
                <path d="M8.32484666,13.0054392 C6.83919685,13.0054392 5.76727231,13.5826293 5.18863557,14.8209119 C5.02372411,15.1507349 3.29070709,18.6992246 2.54860549,20.1848744 L17.4210161,20.1848744 C18.9066659,20.1848744 19.980037,19.6076843 20.5572272,18.3694017 C20.7221386,18.0395788 22.4551557,14.491089 23.1972573,13.0054392 L8.32484666,13.0054392 Z" id="Fill-14" fill="#DAA135"></path>
                <path d="M105.176918,45.1323632 L105.174025,48.35103 L103.359999,48.3495834 L103.361445,45.1309166 L102.288074,45.1309166 L101.712331,43.4803553 L103.362892,43.4803553 L103.364339,42.1596169 C103.364339,41.7473383 103.446794,41.4175153 103.694162,41.1715947 C103.941529,40.9227809 104.272798,40.7578695 104.685077,40.7578695 L107.07774,40.7593161 L107.076293,42.3245284 L105.755555,42.3230818 C105.590643,42.3230818 105.493722,42.3389943 105.33749,42.474974 C105.250694,42.5516433 105.178365,42.6963025 105.178365,42.8178162 L105.178365,43.4818019 L106.497657,43.4832485 L107.074847,45.1338097 L105.176918,45.1323632 Z" id="Fill-16" fill="#657F92"></path>
                <polygon id="Fill-18" fill="#657F92" points="107.980268 48.3491494 109.878197 48.350596 109.883983 40.7588821 107.986055 40.7574355"></polygon>
                <polygon id="Fill-20" fill="#657F92" points="121.327393 45.3768372 118.606353 42.3201886 120.751649 42.3216352 122.400764 44.1400012 124.052772 42.3230818 126.198067 42.325975 123.472688 45.3782838 126.193728 48.35103 124.048432 48.3495834 122.399317 46.532664 120.747309 48.3466902 118.602014 48.3452436"></polygon>
                <path d="M126.855254,41.8299387 L128.753183,41.8313853 L128.754629,40.7594607 L126.856701,40.7580141 L126.855254,41.8299387 Z M126.850914,48.349728 L128.748843,48.3511746 L128.753183,42.3232265 L126.855254,42.3232265 L126.850914,48.349728 Z" id="Fill-22" fill="#657F92"></path>
                <path d="M132.100307,42.3232265 L135.932328,42.3261197 C136.344607,42.3261197 136.67009,42.4201481 136.921797,42.6704085 C137.172058,42.9206689 137.253067,43.3170351 137.251639,43.646858 L137.250174,46.9494271 C137.248727,47.3617058 137.150359,47.6423446 136.913118,47.9157505 C136.675877,48.1906029 136.341714,48.3511746 135.927989,48.3511746 L131.060207,48.3468349 C130.647928,48.3468349 130.388989,48.2021757 130.069292,47.9345562 C129.801672,47.7074413 129.657013,47.3559195 129.658449,46.9436408 L129.662799,40.7551209 L131.560728,40.7551209 L131.556388,46.12053 C131.556388,46.2839949 131.620038,46.4329939 131.7213,46.5328087 C131.821114,46.6326235 132.051123,46.6977202 132.133578,46.6977202 L134.856064,46.6991668 C135.020976,46.7006134 135.171421,46.6326235 135.269789,46.5342553 C135.368158,46.4358871 135.434701,46.2868881 135.434701,46.1219766 L135.436147,44.4714153 C135.436147,44.3065039 135.38407,44.1719708 135.271236,44.0591367 C135.156955,43.9448559 135.023869,43.8942252 134.858957,43.8942252 L132.677497,43.8927786 L132.100307,42.3232265 Z" id="Fill-24" fill="#657F92"></path>
                <polygon id="Fill-26" fill="#657F92" points="138.156463 48.3491494 140.054392 48.350596 140.060178 40.7588821 138.16225 40.7574355"></polygon>
                <path d="M143.406724,44.4677989 L146.660109,44.470692 L146.660109,43.8949485 L143.441442,43.8920553 C143.27653,43.8920553 143.141997,43.9441326 143.029163,44.0569668 C142.916329,44.1698009 142.864252,44.304334 142.862805,44.4692455 L142.862805,46.2210682 C142.862805,46.3859796 142.916329,46.4814547 143.029163,46.5957354 C143.143444,46.7085696 143.358986,46.6969969 143.523898,46.6969969 L148.061856,46.7013367 L148.058963,48.3504513 L142.365178,48.3461116 C141.954346,48.3461116 141.673707,48.2303842 141.377155,47.9338329 C141.080604,47.6372816 140.96343,47.3551962 140.964864,46.9429175 L140.966323,43.7256973 C140.96777,43.311972 141.132681,42.9821491 141.380049,42.7347819 C141.627416,42.4888612 141.957239,42.3225032 142.369517,42.3225032 L147.238746,42.326843 C147.651024,42.326843 148.025691,42.5467249 148.234001,42.7535875 C148.440863,42.9618968 148.64194,43.3177584 148.640501,43.730037 L148.639046,46.1241465 L143.983914,46.1198067 L143.406724,44.4677989 Z" id="Fill-28" fill="#657F92"></path>
                <path d="M113.222139,44.4677989 L116.48131,44.470692 L116.482757,43.8949485 L113.26409,43.8920553 C113.099178,43.8920553 112.964645,43.9441326 112.851811,44.0569668 C112.738977,44.1698009 112.6869,44.304334 112.685453,44.4692455 L112.685453,46.2210682 C112.685453,46.3859796 112.738977,46.4814547 112.851811,46.5957354 C112.966092,46.7085696 113.181634,46.6969969 113.346546,46.6969969 L117.884504,46.7013367 L117.881611,48.3504513 L112.187825,48.3461116 C111.776993,48.3461116 111.494908,48.2303842 111.199803,47.9338329 C110.903252,47.6372816 110.786078,47.3551962 110.787511,46.9429175 L110.788971,43.7256973 C110.790418,43.311972 110.955329,42.9821491 111.202696,42.7347819 C111.448617,42.4888612 111.779887,42.3225032 112.192165,42.3225032 L117.061393,42.326843 C117.473672,42.326843 117.848339,42.5467249 118.055202,42.7535875 C118.263511,42.9618968 118.464587,43.3177584 118.463149,43.730037 L118.461694,46.1241465 L113.799329,46.1198067 L113.222139,44.4677989 Z" id="Fill-30" fill="#657F92"></path>
                <path d="M3.46748062,45.1309166 L3.46458743,48.3495834 L1.65056128,48.3481368 L1.65200787,45.12947 L0.580083324,45.12947 L0.00289318366,43.4789087 L1.65345446,43.4789087 L1.65490105,42.1581704 C1.65490105,41.7458917 1.73735679,41.4160687 1.98472399,41.1701481 C2.23353778,40.9213343 2.56336072,40.7564229 2.97563939,40.7564229 L5.36830228,40.7578695 L5.36685569,42.3230818 L4.04611735,42.3216352 C3.88265247,42.3216352 3.78428423,42.3375477 3.62805231,42.4735274 C3.5412568,42.5501967 3.46892721,42.6948559 3.46892721,42.8163696 L3.46892721,43.4803553 L4.78821896,43.4818019 L5.3654091,45.1323632 L3.46748062,45.1309166 Z" id="Fill-32" fill="#657F92"></path>
                <polygon id="Fill-34" fill="#657F92" points="6.27068626 48.3475582 8.16861474 48.3490047 8.17440111 40.7572908 6.27647263 40.7558442"></polygon>
                <polygon id="Fill-36" fill="#657F92" points="19.6178104 45.3753906 16.8967712 42.318742 19.0420669 42.3201886 20.6911816 44.1385546 22.3431894 42.3216352 24.4884851 42.3245284 21.7631061 45.3768372 24.4841454 48.3495834 22.3388497 48.3481368 20.689735 46.5312175 19.0377271 48.3452436 16.8924314 48.343797"></polygon>
                <path d="M25.1456718,41.8283474 L27.0436003,41.829794 L27.0450469,40.7578695 L25.1471184,40.7564229 L25.1456718,41.8283474 Z M25.141332,48.3481368 L27.0392605,48.3495834 L27.0436003,42.3216352 L25.1456718,42.3216352 L25.141332,48.3481368 Z" id="Fill-38" fill="#657F92"></path>
                <path d="M30.3908691,42.3217799 L34.2228909,42.3246731 C34.6351695,42.3246731 34.9606527,42.4187015 35.2123597,42.6689619 C35.4626201,42.9192223 35.5436292,43.3155885 35.5422016,43.6454114 L35.540736,46.9479806 C35.5392894,47.3602592 35.4409212,47.640898 35.2036801,47.9143039 C34.9664391,48.1891563 34.6322764,48.349728 34.2185511,48.349728 L29.3507696,48.3453883 C28.9384909,48.3453883 28.679551,48.2007291 28.3598542,47.931663 C28.0922347,47.7059947 27.9475755,47.3544729 27.9490114,46.9421942 L27.9533619,40.7536743 L29.8512904,40.7536743 L29.8469506,46.1190834 C29.8469506,46.2825483 29.9106006,46.4315473 30.0118621,46.5313621 C30.1116769,46.6311769 30.341685,46.6962736 30.4241407,46.6962736 L33.1480731,46.6977202 C33.311538,46.6991668 33.4619836,46.6311769 33.5603518,46.5328087 C33.6587201,46.4344405 33.7252633,46.2854415 33.7252633,46.12053 L33.7267099,44.4699688 C33.7267099,44.3050573 33.6746326,44.1705242 33.5617984,44.0576901 C33.4489642,43.9434093 33.3144312,43.8927786 33.1495197,43.8927786 L30.9680593,43.891332 L30.3908691,42.3217799 Z" id="Fill-40" fill="#657F92"></path>
                <polygon id="Fill-42" fill="#657F92" points="36.4470258 48.3475582 38.3449543 48.3490047 38.3507407 40.7572908 36.4528122 40.7558442"></polygon>
                <path d="M41.6971415,44.4663523 L44.9505266,44.4692455 L44.9505266,43.8935019 L41.7318597,43.8906087 C41.5669483,43.8906087 41.4324152,43.942686 41.3195811,44.0555202 C41.2067469,44.1683544 41.1546696,44.3028874 41.1546696,44.4677989 L41.153223,46.2196216 C41.153223,46.384533 41.2067469,46.4800081 41.3195811,46.5942889 C41.4338618,46.707123 41.649404,46.6955503 41.8143155,46.6955503 L46.352274,46.6998901 L46.3508275,48.3490047 L40.6555954,48.344665 C40.2447633,48.344665 39.9641245,48.2289376 39.6675732,47.9323863 C39.3710219,47.635835 39.2538479,47.3537496 39.2552813,46.9414709 L39.2567411,43.7242507 C39.2581877,43.3105254 39.4230992,42.9807025 39.6704664,42.7333353 C39.9178336,42.4874147 40.2476565,42.3210566 40.6613818,42.3210566 L45.5291633,42.3253964 C45.941442,42.3253964 46.3161092,42.5452783 46.5244185,42.752141 C46.7312811,42.9604502 46.9323574,43.3163118 46.9309185,43.7285904 L46.9294642,46.1226999 L42.2743317,46.1183601 L41.6971415,44.4663523 Z" id="Fill-44" fill="#657F92"></path>
                <path d="M11.5125564,44.4663523 L14.7717278,44.4692455 L14.7731744,43.8935019 L11.5545076,43.8906087 C11.3895961,43.8906087 11.2550631,43.942686 11.1422289,44.0555202 C11.0293947,44.1683544 10.9773174,44.3028874 10.9758708,44.4677989 L10.9758708,46.2196216 C10.9758708,46.384533 11.0293947,46.4800081 11.1422289,46.5942889 C11.2565097,46.707123 11.4720518,46.6955503 11.6369633,46.6955503 L16.1749219,46.6998901 L16.1720287,48.3490047 L10.4782433,48.344665 C10.0674112,48.344665 9.78532577,48.2289376 9.49022104,47.9323863 C9.19366971,47.635835 9.07649578,47.3537496 9.07792915,46.9414709 L9.07938896,43.7242507 C9.08083555,43.3105254 9.24574702,42.9807025 9.49311422,42.7333353 C9.74048143,42.4874147 10.0703044,42.3210566 10.482583,42.3210566 L15.3518111,42.3253964 C15.7640898,42.3253964 16.1387571,42.5452783 16.3456197,42.752141 C16.5539289,42.9604502 16.7550052,43.3163118 16.7535664,43.7285904 L16.752112,46.1226999 L12.0897466,46.1183601 L11.5125564,44.4663523 Z" id="Fill-46" fill="#657F92"></path>
                <path d="M80.9233596,46.1078 C80.5110809,46.1078 80.2261023,46.0282375 79.9396771,45.7403657 C79.6532519,45.4539405 79.5230423,45.1168846 79.5230423,44.7046059 L79.5245053,43.7136905 C79.5259519,43.3014119 79.6301065,43.0323458 79.9382305,42.7242217 C80.2463546,42.4146511 80.5168673,42.3119431 80.9276993,42.3119431 L85.7969274,42.3148362 C86.2092061,42.3148362 86.4999711,42.4421363 86.7863963,42.7285615 C87.0728214,43.0149867 87.2001215,43.3057516 87.1986871,43.7194769 L87.1986871,43.8843884 L81.5048895,43.8800486 L81.5048895,44.4572387 L85.7954808,44.4615785 C86.2077595,44.4615785 86.4782722,44.5671797 86.7849497,44.8738572 C87.0916271,45.1805347 87.1972283,45.4524939 87.1972283,45.8647726 L87.1972283,46.894746 C87.1957817,47.3070246 87.0699282,47.6411874 86.7835031,47.9276125 C86.4956313,48.2154843 86.2048663,48.3398912 85.7925877,48.3398912 L80.9233596,48.3355514 C80.5125275,48.3355514 80.2535875,48.241523 79.9353373,47.9218262 C79.6156406,47.603576 79.5216121,47.2766462 79.5230423,46.8643676 L79.5230423,46.7037959 L85.2168441,46.7081356 L85.2168441,46.1106932 L80.9233596,46.1078 Z" id="Fill-48" fill="#657F92"></path>
                <path d="M65.1760502,44.4677989 L68.4279887,44.470692 L68.4294353,43.8949485 L65.2107684,43.8920553 C65.045857,43.8920553 64.9098773,43.9441326 64.7970432,44.0569668 C64.684209,44.1698009 64.6321317,44.304334 64.6321317,44.4692455 L64.6306851,46.2094954 C64.6306851,46.3744069 64.684209,46.469882 64.7984898,46.5841627 C64.9127705,46.6984435 65.1268661,46.7042298 65.2917776,46.7042298 L69.8297361,46.7085696 L69.8282895,48.3388786 L64.1345041,48.3345388 C63.7222254,48.3345388 63.4415866,48.2188115 63.1450353,47.9222602 C62.848484,47.6257088 62.7327566,47.3436234 62.7327566,46.9313448 L62.7356498,43.7141245 C62.7356498,43.3018459 62.9020079,42.9705763 63.1479285,42.7232091 C63.3952957,42.4772885 63.7265652,42.3109304 64.1388439,42.3123677 L69.0066254,42.3152702 C69.4203507,42.3152702 69.7935713,42.5351522 70.0018806,42.7434614 C70.2101898,42.950324 70.4098195,43.3061856 70.4083807,43.7184643 L70.4069263,46.1125738 L65.7532404,46.108234 L65.1760502,44.4677989 Z" id="Fill-50" fill="#657F92"></path>
                <path d="M58.9827566,42.3232265 L55.6744011,42.3261197 C55.2621224,42.3261197 54.9366393,42.4201481 54.6863789,42.6704085 C54.4361185,42.9206689 54.3551094,43.3170351 54.3551094,43.646858 L54.356556,46.9378544 C54.3580025,47.3501331 54.4563708,47.6307719 54.6936119,47.9041778 C54.9322995,48.1790302 55.2664622,48.3396019 55.6787409,48.3396019 L60.5465224,48.3367087 C60.9602477,48.3352621 61.2191876,48.1906029 61.5374378,47.9229835 C61.8050573,47.6973151 61.9497165,47.3457933 61.9497165,46.932068 L61.9439301,40.7435482 L60.0460016,40.7449948 L60.051788,46.1089573 C60.051788,46.2738688 59.9866914,46.4214211 59.8868765,46.521236 C59.7856151,46.6210508 59.555607,46.6861474 59.4731513,46.6861474 L56.7506654,46.687594 C56.585754,46.6890406 56.4353084,46.6210508 56.3369402,46.5226826 C56.2385719,46.4243143 56.1734753,46.2767619 56.1720287,46.1118505 L56.1705821,44.4598426 C56.1705821,44.2963777 56.2226594,44.1618447 56.3354936,44.0475639 C56.4497743,43.9347298 56.5843074,43.8826525 56.7492188,43.8826525 L59.5064229,43.8812059 L58.9827566,42.3232265 Z" id="Fill-52" fill="#657F92"></path>
                <path d="M71.1349882,46.397263 L71.1349882,45.87649 C71.1335494,45.4642113 71.3346256,45.1083497 71.5429348,44.9000405 C71.7497975,44.6917313 72.1244648,44.4689561 72.5367434,44.4689561 L73.4929406,44.4689561 L76.3774447,44.4689561 L75.8364194,46.1108379 L73.1168268,46.1093913 L73.1153802,46.7126201 L76.334047,46.7155133 C76.4989585,46.7155133 76.6334915,46.6634359 76.7463257,46.5506018 C76.8591598,46.4377676 76.9112371,46.3032346 76.9126837,46.1383231 L76.9126837,44.3720345 C76.9126837,44.207123 76.8591598,44.111648 76.7463257,43.9973672 C76.6320449,43.8830864 76.4165027,43.8946592 76.2515913,43.8946592 L71.7136327,43.891766 L71.7165259,42.3120877 L77.4103113,42.3164275 C77.8211434,42.3164275 78.1032288,42.4321548 78.3983335,42.7287062 C78.6948849,43.0252575 78.8120588,43.3073429 78.8106254,43.7196216 L78.8091656,46.9382884 C78.807719,47.3505671 78.6428075,47.68039 78.3954403,47.9277572 C78.1480731,48.1751244 77.8182502,48.3400359 77.4059715,48.3400359 L72.5367434,48.3356961 C72.1244648,48.3356961 71.7497975,48.1172607 71.5429348,47.9089515 C71.3346256,47.7006423 71.1335494,47.3447807 71.1349882,46.932502 L71.1349882,46.397263 Z" id="Fill-54" fill="#657F92"></path>
                <path d="M51.5568221,41.8172087 L53.4547506,41.8186552 L53.4561972,40.7467307 L51.5582687,40.7452841 L51.5568221,41.8172087 Z M51.5524824,48.336998 L53.4504108,48.3384446 L53.4547506,42.3235158 L51.5568221,42.3235158 L51.5524824,48.336998 Z" id="Fill-56" fill="#657F92"></path>
                <path d="M161.961145,48.3455329 L163.859073,48.3469795 L163.864859,40.8377213 L161.966931,40.8377213 L161.961145,48.3455329 Z M167.657823,44.5540157 C167.657823,44.3891043 167.647697,44.195261 167.492912,44.0491552 C167.407563,43.9695926 167.245544,43.8827971 167.080633,43.8827971 L164.686524,43.8813505 L164.11078,42.3233711 L168.154004,42.3262643 C168.567729,42.3262643 168.81365,42.4926224 169.14492,42.7399896 C169.392287,42.9873568 169.555752,43.3171797 169.555752,43.730905 L169.552858,48.3513193 L167.65493,48.3498727 L167.657823,44.5540157 Z" id="Fill-58" fill="#657F92"></path>
                <path d="M170.214088,46.4085465 L170.214088,45.8762007 C170.212649,45.463922 170.413725,45.1080604 170.622034,44.8997512 C170.828897,44.691442 171.203564,44.4686668 171.615843,44.4686668 L172.57204,44.4686668 L175.446418,44.4686668 L174.905393,46.1221213 L172.195926,46.1206747 L172.19448,46.6993114 L175.413147,46.700758 C175.578058,46.700758 175.712591,46.6501273 175.825425,46.5372931 C175.938259,46.424459 175.990337,46.2884793 175.991783,46.1235679 L175.991783,44.3717452 C175.991783,44.2068337 175.938259,44.1113586 175.825425,43.9970779 C175.711145,43.8842437 175.495602,43.8958165 175.330691,43.8958165 L170.792732,43.8914767 L170.795626,42.3233711 L176.489411,42.3277109 C176.900243,42.3277109 177.182328,42.4434383 177.477433,42.7399896 C177.773984,43.0365409 177.891158,43.3186263 177.889725,43.730905 L177.888265,46.9495718 C177.886819,47.3618505 177.721907,47.6916734 177.47454,47.9390406 C177.227173,48.1864078 176.89735,48.3513193 176.485071,48.3513193 L171.615843,48.3469795 C171.203564,48.3469795 170.828897,48.1285441 170.622034,47.9202349 C170.413725,47.7119257 170.212649,47.3560641 170.214088,46.9437854 L170.214088,46.4085465 Z" id="Fill-60" fill="#657F92"></path>
                <path d="M181.5791,48.3479921 L184.890348,48.3450989 C185.302627,48.3450989 185.62811,48.2510705 185.878371,48.0008101 C186.128631,47.7505497 186.20964,47.3541835 186.20964,47.0243606 L186.206747,43.8056938 C186.206747,43.3934151 186.108379,43.0317672 185.871138,42.7583613 C185.63245,42.4835089 185.298287,42.3229372 184.886009,42.3229372 L180.018227,42.3272769 C179.604502,42.3272769 179.345562,42.4719361 179.027312,42.7395556 C178.759692,42.9666705 178.615033,43.3977549 178.615033,43.8114802 L178.619373,50 L180.517301,49.9985534 L180.512961,44.471126 C180.512961,44.3062146 180.585291,44.1644486 180.677873,44.0588474 C180.80662,43.911295 181.009142,43.8939359 181.091598,43.8939359 L183.814084,43.8910427 C183.978995,43.8910427 184.127994,43.9575859 184.226363,44.0559542 C184.324731,44.1543224 184.391274,44.3033214 184.392721,44.4682328 L184.394167,46.1375998 C184.394167,46.3025113 184.34209,46.4370443 184.229256,46.5498785 C184.114975,46.6641592 183.980442,46.71479 183.815531,46.71479 L181.05688,46.7162365 L181.5791,48.3479921 Z" id="Fill-62" fill="#657F92"></path>
                <path d="M189.480529,44.471126 L192.73536,44.471126 L192.73536,43.8939359 L189.516694,43.8924893 C189.353229,43.8924893 189.217249,43.94312 189.104415,44.0559542 C188.991581,44.1687883 188.939504,44.304768 188.939504,44.4696794 L188.938057,46.2200555 C188.938057,46.3864136 188.991581,46.4818887 189.105862,46.5947228 C189.218696,46.7090036 189.434238,46.6974309 189.599149,46.6974309 L194.137108,46.700324 L194.135661,48.3508853 L188.441876,48.3465455 C188.029597,48.3465455 187.748958,48.2308182 187.452407,47.9342669 C187.155856,47.6377155 187.038682,47.3556301 187.040115,46.9433515 L187.041575,43.7246846 C187.043022,43.312406 187.20938,42.9811364 187.4553,42.7352158 C187.702668,42.4878486 188.03249,42.3229372 188.446216,42.3229372 L193.313997,42.3272769 C193.726276,42.3272769 194.100943,42.5457123 194.309252,42.7540215 C194.516115,42.9623307 194.717191,43.3181923 194.715752,43.730471 L194.714298,46.1231339 L190.057719,46.1202407 L189.480529,44.471126 Z" id="Fill-64" fill="#657F92"></path>
                <path d="M154.778527,46.1174922 C154.366248,46.1174922 154.08127,46.0379296 153.794844,45.7500579 C153.508419,45.4636327 153.37821,45.1265768 153.37821,44.7142981 L153.379672,43.7349554 C153.381119,43.3226768 153.485274,43.0536107 153.793398,42.74404 C154.101522,42.435916 154.372034,42.333208 154.782867,42.333208 L159.652095,42.3361011 C160.064373,42.3361011 160.355138,42.4634012 160.641563,42.7498264 C160.927989,43.0362516 161.055289,43.3270165 161.053854,43.7407418 L161.053854,43.8940805 L155.360057,43.8897408 L155.360057,44.4669309 L159.650648,44.4712707 C160.062927,44.4712707 160.333439,44.5768719 160.640117,44.8835494 C160.946794,45.1902268 161.052396,45.4621861 161.052396,45.9656 L161.052396,46.9941268 C161.050949,47.3167168 160.925095,47.6508795 160.63867,47.9373047 C160.350799,48.2251765 160.060034,48.3495834 159.647755,48.3495834 L154.778527,48.3452436 C154.367695,48.3452436 154.108755,48.2512151 153.790505,47.9315183 C153.470808,47.6132681 153.376779,47.2863384 153.37821,46.8740597 L153.37821,46.7019153 L159.072011,46.7062551 L159.072011,46.1203854 L154.778527,46.1174922 Z" id="Fill-66" fill="#657F92"></path>
                <path d="M196.865236,46.1174922 C196.452957,46.1174922 196.167978,46.0379296 195.881553,45.7500579 C195.595128,45.4636327 195.464918,45.1265768 195.464918,44.7142981 L195.466381,43.7248293 C195.467828,43.3125506 195.571982,43.0434846 195.880106,42.7353605 C196.188231,42.4257898 196.458743,42.3230818 196.869575,42.3230818 L201.738803,42.325975 C202.151082,42.325975 202.441847,42.4532751 202.728272,42.7397003 C203.014697,43.0261254 203.141997,43.318337 203.140563,43.7306157 L203.140563,43.8940805 L197.446765,43.8897408 L197.446765,44.4669309 L201.737357,44.4712707 C202.149635,44.4712707 202.420148,44.5768719 202.726826,44.8835494 C203.033503,45.1902268 203.139104,45.4621861 203.139104,45.8744648 L203.139104,46.9044381 C203.137658,47.3167168 203.011804,47.6508795 202.725379,47.9373047 C202.437507,48.2251765 202.146742,48.3495834 201.734464,48.3495834 L196.865236,48.3452436 C196.454403,48.3452436 196.195463,48.2512151 195.877213,47.9315183 C195.557516,47.6132681 195.463488,47.3818134 195.464918,46.9680882 L195.464918,46.7062551 L201.15872,46.7105948 L201.15872,46.1203854 L196.865236,46.1174922 Z" id="Fill-68" fill="#657F92"></path>
                <path d="M96.533532,42.3125217 L93.0009548,42.3125217 C92.3022509,42.3125217 91.7322937,42.8810323 91.7322937,43.5811827 L91.7322937,47.11376 C91.7322937,47.8124638 92.3022509,48.382421 93.0009548,48.382421 L96.533532,48.382421 C97.2322359,48.382421 97.802193,47.8124638 97.802193,47.11376 L97.802193,43.5811827 C97.802193,42.8810323 97.2322359,42.3125217 96.533532,42.3125217 L96.533532,42.3125217 Z M96.533532,47.9281912 L93.5940574,47.9281912 C93.769095,47.744474 93.8775894,47.4985534 93.8775894,47.2251476 C93.8775894,46.6595301 93.4175732,46.1980674 92.8519558,46.1980674 C92.595909,46.1980674 92.3644543,46.2964356 92.185077,46.4512209 L92.185077,43.5811827 C92.185077,43.1327393 92.5496181,42.7681981 92.996615,42.7653049 C93.035673,43.0256915 93.1427207,43.2325541 93.3235447,43.3772133 C93.5101551,43.5262122 93.7647552,43.6028816 94.0670929,43.5927555 L94.0685395,43.6535123 C93.7980268,43.8054045 93.2787004,44.1699456 93.2787004,44.703738 C93.2787004,45.3821896 94.1683544,45.9622729 94.2045192,45.9854184 C94.2406839,46.0100104 94.2840817,46.0230297 94.3289261,46.0230297 C94.367984,46.0230297 94.4055954,46.0129036 94.4359738,45.9955445 C94.50975,45.9564865 94.5545944,45.8798172 94.5545944,45.7959148 L94.5545944,42.7653049 L94.864165,42.7653049 L94.864165,44.8238051 C94.864165,44.948212 94.9654265,45.0494734 95.0912799,45.0494734 C95.2156868,45.0494734 95.3169483,44.948212 95.3169483,44.8238051 L95.3169483,42.7653049 L95.5715484,42.7653049 L95.5715484,44.8238051 C95.5715484,44.948212 95.6742565,45.0494734 95.7986633,45.0494734 C95.9230702,45.0494734 96.0243317,44.948212 96.0243317,44.8238051 L96.0243317,42.7653049 L96.3035239,42.7653049 L96.3035239,44.8238051 C96.3035239,44.948212 96.4047853,45.0494734 96.5291922,45.0494734 C96.6550457,45.0494734 96.7563071,44.948212 96.7563071,44.8238051 L96.7563071,42.8000231 C97.0962562,42.8969448 97.3494098,43.2094086 97.3494098,43.5811827 L97.3494098,47.11376 C97.3494098,47.56365 96.9834221,47.9281912 96.533532,47.9281912 L96.533532,47.9281912 Z M92.2776588,47.2251476 C92.2776588,46.9083439 92.5351522,46.6508506 92.8519558,46.6508506 C93.1673128,46.6508506 93.4248062,46.9083439 93.4248062,47.2251476 C93.4248062,47.5405046 93.1673128,47.7979979 92.8519558,47.7979979 C92.5351522,47.7979979 92.2776588,47.5405046 92.2776588,47.2251476 L92.2776588,47.2251476 Z M94.1018111,44.1699456 L94.1018111,45.3228793 C93.9354531,45.160861 93.7314836,44.9207268 93.7314836,44.703738 C93.7314836,44.4867492 93.9441326,44.2885661 94.1018111,44.1699456 L94.1018111,44.1699456 Z M94.1018111,43.1385256 C93.9658315,43.1486518 93.7488427,43.1385256 93.6056301,43.0227983 C93.531854,42.9649346 93.4812232,42.8781391 93.453738,42.7653049 C93.6056301,42.7667515 93.8284053,42.7667515 94.1018111,42.7710913 L94.1018111,43.1385256 Z" id="Fill-70" fill="#657F92"></path>
                <g id="Group-74" transform="translate(198.555144, 27.026386)">
                    <mask id="mask-4" fill="white">
                        <use xlink:href="#path-3"></use>
                    </mask>
                    <g id="Clip-73"></g>
                    <path d="M6.47349844,3.150677 C6.47349844,4.93721791 5.07175095,6.34041199 3.24615207,6.34041199 C1.44080546,6.34041199 0,4.93721791 0,3.150677 C0,1.40174748 1.44080546,2.56966329e-15 3.24615207,2.56966329e-15 C5.07175095,2.56966329e-15 6.47349844,1.40174748 6.47349844,3.150677 L6.47349844,3.150677 Z M0.805751649,3.150677 C0.805751649,4.55387108 1.84440458,5.66774679 3.26495776,5.66774679 C4.64934614,5.66774679 5.6663002,4.55387108 5.6663002,3.1694827 C5.6663002,1.76628862 4.64934614,0.633607221 3.24615207,0.633607221 C1.84440458,0.633607221 0.805751649,1.76628862 0.805751649,3.150677 L0.805751649,3.150677 Z M2.74707788,4.80268487 L2.01654901,4.80268487 L2.01654901,1.65200787 C2.30442078,1.5941442 2.70801991,1.55508622 3.22734637,1.55508622 C3.82334221,1.55508622 4.09096169,1.65200787 4.32241639,1.78654091 C4.49456081,1.92107395 4.62909385,2.16988774 4.62909385,2.4780118 C4.62909385,2.82374725 4.36002777,3.09281333 3.97668094,3.20854068 L3.97668094,3.24615207 C4.28335841,3.36187941 4.45694943,3.5933341 4.55242449,4.01429233 C4.64934614,4.49600741 4.70576322,4.68840412 4.78387918,4.80268487 L3.99548663,4.80268487 C3.90001157,4.68840412 3.8421479,4.40053235 3.74522625,4.03454461 C3.68880917,3.68880917 3.49641245,3.53402384 3.09281333,3.53402384 L2.74707788,3.53402384 L2.74707788,4.80268487 Z M2.76588358,3.01614396 L3.11161903,3.01614396 C3.51521815,3.01614396 3.8421479,2.88161092 3.8421479,2.55468117 C3.8421479,2.2668094 3.63094549,2.07441268 3.1694827,2.07441268 C2.97708599,2.07441268 2.84255295,2.09321838 2.76588358,2.11347066 L2.76588358,3.01614396 Z" id="Fill-72" fill="#313C45" mask="url(#mask-4)"></path>
                </g>
            </g>
        </g>
    </g>
</svg>