<?xml version="1.0" encoding="UTF-8"?>
<svg id="Livello_1" data-name="Livello 1" xmlns="http://www.w3.org/2000/svg" viewBox="0 0 557.26 285.22">
  <defs>
    <style>
      .cls-1 {
        fill: #001e36;
        stroke-width: 0px;
      }
    </style>
  </defs>
  <g>
    <path class="cls-1" d="M.04,284.1c1.35-.08,2.23-.29,2.63-.63s.6-1.14.6-2.4v-15.01c0-1.24-.2-2.04-.6-2.4-.4-.36-1.28-.57-2.63-.63v-.63h9.45c2.7,0,4.84.43,6.43,1.3s2.38,2.36,2.38,4.49c0,1.59-.56,2.8-1.67,3.63-.63.47-1.57.86-2.82,1.17,1.55.37,2.87,1,3.97,1.87s1.65,2.09,1.65,3.66c0,2.63-1.22,4.45-3.66,5.43-1.28.52-2.87.77-4.74.77H.03v-.62h0ZM12.73,271.85c1.43-.66,2.14-1.84,2.14-3.55,0-2.01-.83-3.37-2.47-4.08-.91-.38-2.3-.58-4.16-.58-.7,0-1.14.06-1.3.18s-.25.45-.25.99v7.63l3.21-.05c1.15-.02,2.09-.2,2.83-.54h0ZM13.82,282.5c1.17-.67,1.75-1.96,1.75-3.86s-.68-3.18-2.05-3.87c-1.36-.69-3.1-1.04-5.21-1.04h-.98c-.14,0-.35-.01-.63-.02v8.41c0,.58.17.96.49,1.13.33.17,1.1.26,2.29.26,1.73-.01,3.18-.34,4.34-1.01h0Z"/>
    <path class="cls-1" d="M24.37,284.1c1.24-.13,2.05-.35,2.42-.66s.55-1.1.55-2.37v-15.01c0-1.2-.18-1.98-.54-2.35s-1.17-.6-2.42-.68v-.63h17.93l.11,4.83h-.85c-.29-1.49-.71-2.45-1.29-2.89-.57-.44-1.85-.66-3.82-.66h-4.6c-.5,0-.8.08-.92.24s-.17.46-.17.9v7.53h5.21c1.44,0,2.36-.21,2.75-.64.4-.43.71-1.29.96-2.59h.79v7.79h-.79c-.25-1.31-.58-2.17-.97-2.6-.4-.42-1.31-.63-2.74-.63h-5.21v8.36c0,.67.21,1.07.64,1.19.42.12,1.69.18,3.8.18,2.29,0,3.98-.25,5.07-.75s2.07-1.71,2.93-3.63h.94l-1.53,5.7h-18.25v-.63h0Z"/>
    <path class="cls-1" d="M48.8,277.93c.57,1.52,1.24,2.73,2.01,3.63,1.34,1.57,3,2.36,4.99,2.36,1.07,0,2.01-.34,2.79-1.02s1.18-1.63,1.18-2.85c0-1.1-.4-2.05-1.18-2.87-.51-.52-1.6-1.29-3.26-2.32l-2.88-1.8c-.87-.55-1.56-1.1-2.08-1.67-.95-1.07-1.43-2.24-1.43-3.53,0-1.7.57-3.12,1.7-4.25s2.63-1.7,4.5-1.7c.77,0,1.69.19,2.78.57,1.08.38,1.7.57,1.85.57.42,0,.71-.1.87-.3.16-.2.28-.48.37-.84h.69l.74,7.19h-.81c-.55-2.16-1.43-3.67-2.64-4.53s-2.42-1.29-3.6-1.29c-.92,0-1.73.27-2.41.82-.69.54-1.03,1.3-1.03,2.27,0,.87.26,1.61.79,2.23.53.63,1.34,1.28,2.45,1.96l2.96,1.83c1.85,1.14,3.16,2.19,3.93,3.15.75.97,1.12,2.11,1.12,3.43,0,1.77-.67,3.25-2,4.43-1.34,1.19-3.04,1.78-5.12,1.78-1.04,0-2.14-.2-3.27-.59-1.14-.4-1.79-.59-1.95-.59-.4,0-.66.12-.8.36s-.23.5-.27.77h-.74l-1.01-7.19h.76Z"/>
    <path class="cls-1" d="M68.09,262.39h19.08l.18,5.74h-.81c-.4-1.8-.9-2.98-1.51-3.52-.61-.54-1.89-.82-3.85-.82h-1.88v17.27c0,1.3.2,2.11.61,2.42.41.31,1.3.52,2.67.61v.63h-9.84v-.63c1.43-.11,2.32-.34,2.67-.7.35-.36.53-1.27.53-2.72v-16.88h-1.89c-1.87,0-3.14.27-3.82.81-.67.54-1.18,1.71-1.52,3.53h-.82l.2-5.74h0Z"/>
    <g>
      <path class="cls-1" d="M109.26,284.1c1.28-.12,2.09-.37,2.41-.76s.48-1.28.48-2.67v-14.62c0-1.17-.18-1.95-.54-2.32s-1.14-.61-2.35-.71v-.63h8.9c2.86,0,5.04.55,6.56,1.66s2.28,2.57,2.28,4.38c0,2.3-.84,3.96-2.52,4.99s-3.79,1.55-6.31,1.55c-.36,0-.83-.01-1.39-.03-.57-.02-.99-.02-1.26-.02v6.13c0,1.27.2,2.07.58,2.39s1.26.54,2.61.64v.63h-9.44v-.61h-.01ZM120.65,264.27c-.95-.42-2.16-.63-3.63-.63-.69,0-1.12.07-1.28.21-.16.14-.24.44-.24.92v8.8c.6.06,1,.09,1.19.1s.37.02.54.02c1.55,0,2.77-.22,3.66-.66,1.62-.8,2.42-2.3,2.42-4.5,0-2.07-.88-3.49-2.66-4.26h0Z"/>
      <path class="cls-1" d="M129.89,284.1c1.24-.13,2.05-.35,2.42-.66s.55-1.1.55-2.37v-15.01c0-1.2-.18-1.98-.54-2.35s-1.17-.6-2.42-.68v-.63h17.93l.11,4.83h-.85c-.29-1.49-.71-2.45-1.29-2.89-.57-.44-1.85-.66-3.82-.66h-4.6c-.5,0-.8.08-.92.24s-.17.46-.17.9v7.53h5.21c1.44,0,2.36-.21,2.75-.64s.71-1.29.96-2.59h.79v7.79h-.79c-.25-1.31-.58-2.17-.97-2.6-.4-.42-1.31-.63-2.74-.63h-5.21v8.36c0,.67.21,1.07.64,1.19.42.12,1.69.18,3.8.18,2.29,0,3.98-.25,5.07-.75s2.07-1.71,2.93-3.63h.94l-1.53,5.7h-18.25v-.63h0Z"/>
      <path class="cls-1" d="M156.55,264.9c2.08-1.99,4.63-2.98,7.66-2.98s5.6,1,7.68,3c2.25,2.16,3.38,5.05,3.38,8.65s-1.16,6.57-3.49,8.74c-2.09,1.93-4.61,2.9-7.56,2.9-3.16,0-5.79-1.07-7.88-3.21-2.12-2.19-3.18-4.99-3.18-8.42,0-3.62,1.13-6.51,3.39-8.68h0ZM159.08,281.43c1.4,1.7,3.11,2.55,5.15,2.55s3.69-.83,5.11-2.48c1.41-1.65,2.12-4.3,2.12-7.94s-.71-6.34-2.14-7.98-3.12-2.46-5.08-2.46-3.74.85-5.14,2.55c-1.4,1.7-2.1,4.33-2.1,7.89-.02,3.55.68,6.18,2.08,7.87h0Z"/>
      <path class="cls-1" d="M179.1,284.1c1.28-.12,2.09-.37,2.41-.76s.48-1.28.48-2.67v-14.62c0-1.17-.18-1.95-.54-2.32s-1.14-.61-2.35-.71v-.63h8.9c2.86,0,5.04.55,6.56,1.66s2.28,2.57,2.28,4.38c0,2.3-.84,3.96-2.52,4.99s-3.79,1.55-6.31,1.55c-.36,0-.83-.01-1.39-.03-.57-.02-.99-.02-1.26-.02v6.13c0,1.27.2,2.07.58,2.39s1.26.54,2.61.64v.63h-9.44v-.61h0ZM190.48,264.27c-.95-.42-2.16-.63-3.63-.63-.69,0-1.12.07-1.28.21-.16.14-.24.44-.24.92v8.8c.6.06,1,.09,1.19.1s.37.02.54.02c1.55,0,2.77-.22,3.66-.66,1.62-.8,2.42-2.3,2.42-4.5,0-2.07-.88-3.49-2.66-4.26h0Z"/>
      <path class="cls-1" d="M199.73,284.1c1.24-.13,2.05-.35,2.42-.66s.55-1.1.55-2.37v-15.01c0-1.2-.18-1.98-.54-2.35s-1.17-.6-2.42-.68v-.63h9.53v.63c-1.24.07-2.08.27-2.5.61s-.64,1.07-.64,2.19v16.22c0,.37.06.67.19.88s.41.35.83.4c.25.03.52.06.8.07s.81.02,1.58.02c3,0,5.03-.25,6.09-.74s2.08-1.76,3.07-3.79h.86l-1.65,5.85h-18.16v-.64h-.01Z"/>
      <path class="cls-1" d="M222.37,284.1c1.24-.13,2.05-.35,2.42-.66s.55-1.1.55-2.37v-15.01c0-1.2-.18-1.98-.54-2.35s-1.17-.6-2.42-.68v-.63h17.93l.11,4.83h-.85c-.29-1.49-.71-2.45-1.29-2.89-.57-.44-1.85-.66-3.82-.66h-4.6c-.5,0-.8.08-.92.24s-.17.46-.17.9v7.53h5.21c1.44,0,2.36-.21,2.75-.64.4-.43.71-1.29.96-2.59h.79v7.79h-.79c-.25-1.31-.58-2.17-.97-2.6-.4-.42-1.31-.63-2.74-.63h-5.21v8.36c0,.67.21,1.07.64,1.19.42.12,1.69.18,3.8.18,2.29,0,3.98-.25,5.07-.75s2.07-1.71,2.93-3.63h.94l-1.53,5.7h-18.25v-.63h0Z"/>
      <g>
        <path class="cls-1" d="M262.44,284.1c1.35-.08,2.23-.29,2.63-.63s.6-1.14.6-2.4v-15.01c0-1.24-.2-2.04-.6-2.4s-1.28-.57-2.63-.63v-.63h9.45c2.7,0,4.84.43,6.43,1.3s2.38,2.36,2.38,4.49c0,1.59-.56,2.8-1.67,3.63-.63.47-1.57.86-2.82,1.17,1.55.37,2.87,1,3.97,1.87s1.65,2.09,1.65,3.66c0,2.63-1.22,4.45-3.66,5.43-1.28.52-2.87.77-4.74.77h-11v-.62h.01ZM275.13,271.85c1.43-.66,2.14-1.84,2.14-3.55,0-2.01-.83-3.37-2.47-4.08-.91-.38-2.3-.58-4.16-.58-.7,0-1.14.06-1.3.18-.16.12-.25.45-.25.99v7.63l3.21-.05c1.14-.02,2.08-.2,2.83-.54h0ZM276.22,282.5c1.17-.67,1.75-1.96,1.75-3.86s-.68-3.18-2.05-3.87c-1.36-.69-3.1-1.04-5.21-1.04h-.98c-.14,0-.35-.01-.63-.02v8.41c0,.58.17.96.49,1.13.33.17,1.1.26,2.29.26,1.73-.01,3.17-.34,4.34-1.01h0Z"/>
        <path class="cls-1" d="M286.76,284.1c1.24-.13,2.05-.35,2.42-.66.37-.31.55-1.1.55-2.37v-15.01c0-1.2-.18-1.98-.54-2.35-.36-.37-1.17-.6-2.42-.68v-.63h17.93l.11,4.83h-.85c-.29-1.49-.71-2.45-1.29-2.89-.57-.44-1.85-.66-3.82-.66h-4.6c-.5,0-.8.08-.92.24-.12.16-.17.46-.17.9v7.53h5.21c1.44,0,2.36-.21,2.75-.64.4-.43.71-1.29.96-2.59h.79v7.79h-.79c-.25-1.31-.58-2.17-.97-2.6-.4-.42-1.31-.63-2.74-.63h-5.21v8.36c0,.67.21,1.07.64,1.19.42.12,1.69.18,3.8.18,2.29,0,3.98-.25,5.07-.75s2.07-1.71,2.93-3.63h.94l-1.53,5.7h-18.25v-.63h0Z"/>
        <path class="cls-1" d="M311.2,277.93c.57,1.52,1.24,2.73,2.01,3.63,1.34,1.57,3,2.36,4.99,2.36,1.07,0,2.01-.34,2.79-1.02s1.18-1.63,1.18-2.85c0-1.1-.4-2.05-1.18-2.87-.51-.52-1.6-1.29-3.26-2.32l-2.88-1.8c-.87-.55-1.56-1.1-2.08-1.67-.95-1.07-1.43-2.24-1.43-3.53,0-1.7.57-3.12,1.7-4.25s2.63-1.7,4.5-1.7c.77,0,1.69.19,2.78.57,1.08.38,1.7.57,1.85.57.42,0,.71-.1.87-.3.16-.2.28-.48.37-.84h.69l.74,7.19h-.81c-.55-2.16-1.43-3.67-2.64-4.53s-2.42-1.29-3.6-1.29c-.92,0-1.73.27-2.41.82-.69.54-1.03,1.3-1.03,2.27,0,.87.26,1.61.79,2.23.53.63,1.34,1.28,2.45,1.96l2.96,1.83c1.85,1.14,3.16,2.19,3.93,3.15.75.97,1.12,2.11,1.12,3.43,0,1.77-.67,3.25-2,4.43-1.34,1.19-3.04,1.78-5.12,1.78-1.04,0-2.14-.2-3.27-.59-1.14-.4-1.79-.59-1.95-.59-.4,0-.66.12-.8.36s-.23.5-.27.77h-.74l-1.01-7.19h.76,0Z"/>
        <path class="cls-1" d="M330.48,262.39h19.08l.18,5.74h-.81c-.4-1.8-.9-2.98-1.51-3.52-.61-.54-1.89-.82-3.85-.82h-1.88v17.27c0,1.3.2,2.11.61,2.42.41.31,1.3.52,2.67.61v.63h-9.84v-.63c1.43-.11,2.32-.34,2.67-.7.35-.36.53-1.27.53-2.72v-16.88h-1.89c-1.87,0-3.14.27-3.82.81-.67.54-1.18,1.71-1.52,3.53h-.82l.2-5.74h0Z"/>
        <path class="cls-1" d="M371.1,284.1c1.35-.08,2.23-.29,2.63-.63s.6-1.14.6-2.4v-15.01c0-1.24-.2-2.04-.6-2.4s-1.28-.57-2.63-.63v-.63h9.45c2.7,0,4.84.43,6.43,1.3s2.38,2.36,2.38,4.49c0,1.59-.56,2.8-1.67,3.63-.63.47-1.57.86-2.82,1.17,1.55.37,2.87,1,3.97,1.87s1.65,2.09,1.65,3.66c0,2.63-1.22,4.45-3.66,5.43-1.28.52-2.87.77-4.74.77h-11v-.62h.01ZM383.79,271.85c1.43-.66,2.14-1.84,2.14-3.55,0-2.01-.83-3.37-2.47-4.08-.91-.38-2.3-.58-4.16-.58-.7,0-1.14.06-1.3.18s-.25.45-.25.99v7.63l3.21-.05c1.14-.02,2.08-.2,2.83-.54h0ZM384.88,282.5c1.17-.67,1.75-1.96,1.75-3.86s-.68-3.18-2.05-3.87c-1.36-.69-3.1-1.04-5.21-1.04h-.98c-.14,0-.35-.01-.63-.02v8.41c0,.58.17.96.49,1.13.33.17,1.1.26,2.29.26,1.73-.01,3.17-.34,4.34-1.01h0Z"/>
        <path class="cls-1" d="M405.08,262.39v.63c-1.3.09-2.14.31-2.52.65-.38.35-.58,1.14-.58,2.38v10.8c0,1.77.24,3.15.73,4.14.9,1.8,2.61,2.7,5.12,2.7,2.76,0,4.61-.92,5.55-2.77.53-1.03.79-2.63.79-4.78v-8.78c0-1.84-.22-2.99-.66-3.45-.44-.47-1.28-.76-2.51-.88v-.63h7.81v.63c-1.31.14-2.16.46-2.56.95s-.6,1.62-.6,3.39v8.78c0,2.33-.36,4.15-1.07,5.46-1.32,2.41-3.82,3.61-7.52,3.61s-6.13-1.19-7.45-3.56c-.71-1.27-1.07-2.96-1.07-5.04v-10.55c0-1.23-.19-2.02-.57-2.36-.38-.35-1.21-.57-2.48-.67v-.63h9.59v-.02h0Z"/>
        <path class="cls-1" d="M423.62,277.93c.57,1.52,1.24,2.73,2.01,3.63,1.34,1.57,3,2.36,4.99,2.36,1.07,0,2.01-.34,2.79-1.02s1.18-1.63,1.18-2.85c0-1.1-.4-2.05-1.18-2.87-.51-.52-1.6-1.29-3.26-2.32l-2.88-1.8c-.87-.55-1.56-1.1-2.08-1.67-.95-1.07-1.43-2.24-1.43-3.53,0-1.7.57-3.12,1.7-4.25s2.63-1.7,4.5-1.7c.77,0,1.69.19,2.78.57,1.08.38,1.7.57,1.85.57.42,0,.71-.1.87-.3.16-.2.28-.48.37-.84h.69l.74,7.19h-.81c-.55-2.16-1.43-3.67-2.64-4.53s-2.42-1.29-3.6-1.29c-.92,0-1.73.27-2.41.82-.69.54-1.03,1.3-1.03,2.27,0,.87.26,1.61.79,2.23.53.63,1.34,1.28,2.45,1.96l2.96,1.83c1.85,1.14,3.16,2.19,3.93,3.15.75.97,1.12,2.11,1.12,3.43,0,1.77-.67,3.25-2,4.43-1.34,1.19-3.04,1.78-5.12,1.78-1.04,0-2.14-.2-3.27-.59-1.14-.4-1.79-.59-1.95-.59-.4,0-.66.12-.8.36s-.23.5-.27.77h-.74l-1.01-7.19h.76,0Z"/>
        <path class="cls-1" d="M442.78,284.1c1.37-.1,2.26-.3,2.67-.61s.61-1.12.61-2.42v-15.01c0-1.24-.2-2.04-.61-2.4s-1.3-.57-2.67-.63v-.63h9.99v.63c-1.37.07-2.26.28-2.67.63-.41.36-.61,1.16-.61,2.4v15.01c0,1.3.2,2.11.61,2.42.41.31,1.3.52,2.67.61v.63h-9.99v-.63Z"/>
        <path class="cls-1" d="M455.88,284.1c1.4-.14,2.29-.46,2.69-.95.4-.49.59-1.62.59-3.4v-14.87l-.46-.54c-.5-.58-.92-.94-1.26-1.08-.35-.14-.87-.22-1.56-.24v-.63h5.76l13.03,16.15v-11.22c0-1.84-.27-3.05-.82-3.6-.36-.36-1.17-.6-2.41-.7v-.63h7.93v.63c-1.28.13-2.14.45-2.57.94s-.64,1.63-.64,3.39v17.77h-.58l-14.93-18.51v13.14c0,1.84.27,3.05.81,3.61.35.36,1.14.61,2.36.74v.63h-7.93v-.63h-.01,0Z"/>
        <path class="cls-1" d="M482.28,284.1c1.24-.13,2.05-.35,2.42-.66s.55-1.1.55-2.37v-15.01c0-1.2-.18-1.98-.54-2.35s-1.17-.6-2.42-.68v-.63h17.93l.11,4.83h-.85c-.29-1.49-.71-2.45-1.29-2.89-.57-.44-1.85-.66-3.82-.66h-4.6c-.5,0-.8.08-.92.24s-.17.46-.17.9v7.53h5.21c1.44,0,2.36-.21,2.75-.64s.71-1.29.96-2.59h.79v7.79h-.79c-.25-1.31-.58-2.17-.97-2.6-.4-.42-1.31-.63-2.74-.63h-5.21v8.36c0,.67.21,1.07.64,1.19.42.12,1.69.18,3.8.18,2.29,0,3.98-.25,5.07-.75s2.07-1.71,2.93-3.63h.94l-1.53,5.7h-18.25v-.63h0Z"/>
        <path class="cls-1" d="M506.72,277.93c.57,1.52,1.24,2.73,2.01,3.63,1.34,1.57,3,2.36,4.99,2.36,1.07,0,2.01-.34,2.79-1.02.78-.68,1.18-1.63,1.18-2.85,0-1.1-.4-2.05-1.18-2.87-.51-.52-1.6-1.29-3.26-2.32l-2.88-1.8c-.87-.55-1.56-1.1-2.08-1.67-.95-1.07-1.43-2.24-1.43-3.53,0-1.7.57-3.12,1.7-4.25s2.63-1.7,4.5-1.7c.77,0,1.69.19,2.78.57,1.08.38,1.7.57,1.85.57.42,0,.71-.1.87-.3.16-.2.28-.48.37-.84h.69l.74,7.19h-.81c-.55-2.16-1.43-3.67-2.64-4.53s-2.42-1.29-3.6-1.29c-.92,0-1.73.27-2.41.82-.69.54-1.03,1.3-1.03,2.27,0,.87.26,1.61.79,2.23.53.63,1.34,1.28,2.45,1.96l2.96,1.83c1.85,1.14,3.16,2.19,3.93,3.15.75.97,1.12,2.11,1.12,3.43,0,1.77-.67,3.25-2,4.43-1.34,1.19-3.04,1.78-5.12,1.78-1.04,0-2.14-.2-3.27-.59-1.14-.4-1.79-.59-1.95-.59-.4,0-.66.12-.8.36s-.23.5-.27.77h-.76l-1.01-7.19h.78,0Z"/>
        <path class="cls-1" d="M527.52,277.93c.57,1.52,1.24,2.73,2.01,3.63,1.34,1.57,3,2.36,4.99,2.36,1.07,0,2.01-.34,2.79-1.02.78-.68,1.18-1.63,1.18-2.85,0-1.1-.4-2.05-1.18-2.87-.51-.52-1.6-1.29-3.26-2.32l-2.88-1.8c-.87-.55-1.56-1.1-2.08-1.67-.95-1.07-1.43-2.24-1.43-3.53,0-1.7.57-3.12,1.7-4.25s2.63-1.7,4.5-1.7c.77,0,1.69.19,2.78.57,1.08.38,1.7.57,1.85.57.42,0,.71-.1.87-.3.16-.2.28-.48.37-.84h.69l.74,7.19h-.81c-.55-2.16-1.43-3.67-2.64-4.53s-2.42-1.29-3.6-1.29c-.92,0-1.73.27-2.41.82-.69.54-1.03,1.3-1.03,2.27,0,.87.26,1.61.79,2.23.53.63,1.34,1.28,2.45,1.96l2.96,1.83c1.85,1.14,3.16,2.19,3.93,3.15.75.97,1.12,2.11,1.12,3.43,0,1.77-.67,3.25-2,4.43-1.34,1.19-3.04,1.78-5.12,1.78-1.04,0-2.14-.2-3.27-.59-1.14-.4-1.79-.59-1.95-.59-.4,0-.66.12-.8.36s-.23.5-.27.77h-.74l-1.01-7.19h.76Z"/>
      </g>
    </g>
  </g>
  <path class="cls-1" d="M277.16,0C237.89,0,206.05,31.83,206.05,71.11s31.84,71.11,71.11,71.11,71.11-31.84,71.11-71.11S316.43,0,277.16,0h0ZM293.94,17.42c3.65,2.64,11.01,9.82,8.57,11.79-2.34,1.89-14.38-.61-19.77-5.51,1.61-.15,3.43-.41,3.57-1.64.32-2.63-8.51-8.25-12.35-9.34.01-2.33-2.07-3.98-3.16-4.81,12.89,2.45,18.64,6.27,23.14,9.51ZM308.5,59.04c-.13.3-4.51,9.02-4.87,9.72-.35.69-.9.35-1.09.25-.17-.1-.59-.98-.73-1.47-.15-.5-.89-.81-1.12-1.09-.21-.27-1.04-1.1-1.67-1.22-.6-.09-1.26.21-2.2.21-.46,0-.97-.55-1.12-.69-.13-.13-.8-.57-1.21-.73-.41-.17-2.62-1.74-3.39-2.25-.75-.47-1.66-1.82-3.02-2.43-1.35-.58-2.27.23-2.61.67-2.83,3.57-4.81,7.11-5.49,9.82-.35,1.32.99,1.88,1.51,2.06.53.18,2.1.48,3.04.73s1.5.98,1.74,1.22,1.92,1.34,2.48,1.85c.68.63,1.76.95,2.32,1.09.51.13,1.64,0,1.3,1.05-.07.26-1.07,2.08-1.13,2.28-.08.21-.61,1.09-.67,1.34-.08.23-.39.61-.53.87-.14.23-2.52,3.31-2.98,4.19-.45.88-1.81.33-2.1.19-.53-.24-2.09-1.38-3.41-3.2-.86-1.18-3.11-2.03-5.41-2.17-.21.87-.67,2.05-1.07,2.87-.43.77-.76,1.48-1.21,2.4-.15.29-1.23,2.05-1.38,2.41-.13.34-1.93,3.48-2.15,4.08-.18.5.08,1.27.03,1.63-.04.38-.36.81-.68,1.14-.17.15-.26.49-.23.85.04.35,0,1.17-.17,1.42s-1.98,1.84-2.37,2.34c-.39.47-1.56,2.43-1.71,2.93-.15.47-1.84,4.45-2.47,5.43s-3.68,5.74-4.19,6.8c-.47,1.03-.66,2.37-.95,3.16-.21.23-.95,1.5-1.65,2.27-.17.18-.56.49-.69.45-.12-.06.04-.8.14-1.04.18-.54,1.07-3.36,1.25-3.82.07-.22.95-2.69,1.14-3.14.17-.46,1.32-3.38,1.59-4.17.29-.82,1.26-4.23,1.65-5.23.38-1.02.93-4.26.89-5.28-.03-1-.27-2.43.11-3.93.1-.41.73-1.91.93-2.44.21-.52,1.78-5.11,2-5.91.21-.81,1.28-4.64,1.8-6.1.54-1.46.95-3.77.51-4.91-.47-1.15-2.18-1.73-2.65-1.84-.5-.11-.88-.61-1.02-.93-.14-.32-2.62-2.87-3.14-3.38-.52-.52-3.62-2.23-4.05-2.34-.41-.11-1.98-1.2-2.25-1.46-.29-.28-8.53-6.31-8.86-6.58-.31-.29-8.43-5.71-8.92-5.96-.48-.25-6.58-4.57-7.06-4.94-.49-.39.1-.95.83-.51.32.2,3.58,1.82,4.2,2.2.64.39,4.61,1.95,5.65,2.57,1.04.63,1.43.53,1.92.67.48.13,3.19,1.29,3.76,1.49.56.2,5.12,2.16,5.85,2.46.73.33,6.13,2.98,6.44,3.14.31.18,2.93,1.37,3.11,1.48.17.1,2.09,1.15,2.51,1.35.41.21,1.36.27,1.87.64.53.33,3.18,1.73,3.74,1.98.56.23.85.25,1.14.04,3.26-2.58,2.9-6.97.49-10.08-.74-.94-4.67-4.84-5.15-5.39-.49-.57-5.01-3.7-5.25-3.95-.26-.24-4.99-3.48-5.52-3.78-.52-.32-7.35-4.67-7.52-4.83-.18-.13-2.93-1.69-3.44-2-.53-.31-.42-.74-.08-.81.33-.06,1.04.04,1.36.04.3,0,.86.26,1.07.41.22.19.45.48.8.5.35.03.7.07,1.01.23.32.18,1.26.67,1.53.92.29.23,1.27.46,1.64.59s1.25.5,1.75.61c.49.09,1.29.37,1.84.67.56.33,7,2.91,7.59,3.15.59.24,7.25,3.03,8.22,3.48.98.46,2.13.84,3.41,1.2,1.3.34,1.99-.39,2.44-.7.47-.32,1.7-2.48,2.54-3.53.85-1.03,2.02-1.63,2.8-1.73.75-.11,1.39-.03,1.84.13.63.27,3.28.71,3.69.75.41.06,2.69.27,3.02.37.31.1,2.88.19,2.33.96-.56.78-1.32.93-1.33,1.28-.02.25.36.6.63.87.29.27.75.66.69,1.04-.06.23-.4.39-.6.59-.22.21-.35.83-.5,1.08-.13.23-1.25,1.1-1.98,1.85-.73.73.35.91.67,1.07.32.17,1.36.91,1.59,1.08.25.18,1.76.81,2.1.95.35.15,1.61,1.12,1.84,1.18.25.07,1.19-.02,1.4.11.2.14.78.6,1.01.66.24.07,1.54.46,1.75.6.21.13,3.48,1.53,3.79,1.67.3.14,1,.45,1.5.45s.91.33,1.14.5,1.16.58,1.64.62c.54,0,.57.3.42.61h0Z"/>
  <g>
    <path class="cls-1" d="M0,231.67c3.77-.21,6.21-.8,7.32-1.76,1.11-.96,1.67-3.19,1.67-6.68v-41.79c0-3.46-.56-5.68-1.67-6.67-1.11-.99-3.55-1.58-7.32-1.77v-1.74h26.31c7.52,0,13.48,1.21,17.89,3.63s6.62,6.58,6.62,12.49c0,4.44-1.54,7.81-4.63,10.1-1.74,1.32-4.36,2.4-7.84,3.26,4.31,1.04,8,2.77,11.05,5.2,3.06,2.43,4.59,5.83,4.59,10.2,0,7.33-3.39,12.37-10.17,15.12-3.58,1.44-7.98,2.15-13.2,2.15H0v-1.74h0ZM35.31,197.58c3.97-1.84,5.96-5.13,5.96-9.88,0-5.61-2.29-9.39-6.88-11.35-2.54-1.07-6.39-1.61-11.56-1.61-1.96,0-3.16.17-3.62.51s-.69,1.26-.69,2.76v21.23l8.94-.14c3.16-.06,5.78-.56,7.85-1.52h0ZM38.34,227.22c3.24-1.86,4.86-5.44,4.86-10.73s-1.9-8.85-5.69-10.78c-3.79-1.93-8.62-2.89-14.49-2.89h-2.73c-.38,0-.97,0-1.77-.04v23.39c0,1.62.46,2.67,1.37,3.14.92.47,3.05.71,6.38.71,4.81,0,8.83-.94,12.07-2.8h0Z"/>
    <g>
      <path class="cls-1" d="M58.63,233.48v-1.34c1.86-.21,3.25-.91,4.18-2.1s2.52-4.44,4.78-9.75l15.05-35.45h1.44l18,40.95c1.2,2.71,2.16,4.39,2.87,5.03.72.64,1.92,1.08,3.62,1.31v1.34h-18.37v-1.34c2.11-.19,3.47-.42,4.08-.68.61-.27.92-.93.92-1.98,0-.35-.12-.97-.35-1.86-.23-.89-.56-1.83-.99-2.81l-2.89-6.95h-19.04c-1.88,4.73-3,7.61-3.36,8.65s-.55,1.87-.55,2.47c0,1.22.49,2.06,1.48,2.53.61.28,1.76.49,3.45.63v1.34h-14.32ZM89.74,214.93l-8.28-19.89-8.32,19.89h16.6Z"/>
      <path class="cls-1" d="M112.71,232.14c2.99-.31,4.9-.98,5.75-2.03s1.27-3.47,1.27-7.28v-31.83l-.99-1.16c-1.06-1.25-1.96-2.01-2.7-2.31-.74-.29-1.85-.46-3.33-.51v-1.34h12.33l27.88,34.56v-24.01c0-3.95-.59-6.52-1.77-7.71-.77-.77-2.49-1.27-5.15-1.51v-1.34h16.97v1.34c-2.75.28-4.58.95-5.5,2.01s-1.37,3.48-1.37,7.27v38.02h-1.23l-31.95-39.61v28.12c0,3.95.58,6.52,1.73,7.72.75.78,2.44,1.3,5.05,1.59v1.34h-16.97v-1.33h-.02Z"/>
      <path class="cls-1" d="M201.01,186.01c2.75.78,4.29,1.16,4.62,1.16.68,0,1.33-.19,1.94-.56.61-.38,1.03-.96,1.27-1.76h1.52l.67,16.22h-1.66c-.97-3.22-2.22-5.82-3.77-7.79-2.96-3.71-6.95-5.57-11.96-5.57s-9.19,2-12.4,6-4.82,9.5-4.82,16.51c0,6.44,1.69,11.59,5.06,15.43s7.65,5.77,12.82,5.77c3.74,0,7.18-.89,10.33-2.68,1.81-1.01,3.8-2.54,5.96-4.58l1.34,1.34c-1.6,2.02-3.58,3.8-5.96,5.33-4.05,2.59-8.43,3.88-13.16,3.88-7.76,0-13.92-2.48-18.48-7.44-4.21-4.59-6.31-10.31-6.31-17.18s2.22-12.93,6.67-17.71c4.68-5.01,10.77-7.51,18.27-7.51,2.62-.03,5.3.36,8.05,1.14h0Z"/>
      <path class="cls-1" d="M217.64,233.48v-1.34c1.86-.21,3.25-.91,4.18-2.1s2.52-4.44,4.77-9.75l15.05-35.45h1.44l18,40.95c1.2,2.71,2.15,4.39,2.87,5.03s1.92,1.08,3.62,1.31v1.34h-18.37v-1.34c2.11-.19,3.47-.42,4.08-.68.61-.27.92-.93.92-1.98,0-.35-.12-.97-.35-1.86-.23-.89-.56-1.83-.99-2.81l-2.89-6.95h-19.04c-1.88,4.73-2.99,7.61-3.36,8.65-.36,1.04-.55,1.87-.55,2.47,0,1.22.49,2.06,1.48,2.53.61.28,1.76.49,3.45.63v1.34h-14.31,0ZM248.76,214.93l-8.28-19.89-8.32,19.89h16.6,0Z"/>
    </g>
    <path class="cls-1" d="M289.7,231.67c3.69-.4,5.99-1.07,6.9-2.03.9-.96,1.35-3.46,1.35-7.5v-40.64c0-3.33-.5-5.51-1.51-6.53s-3.25-1.66-6.74-1.9v-1.74h49.98l.32,13.42h-2.61c-.64-4.29-1.85-7-3.62-8.14s-5.26-1.71-10.49-1.71h-12.87c-1.26,0-2.06.21-2.41.64s-.53,1.27-.53,2.52v20.94h13.6c4,0,6.55-.59,7.65-1.78s1.98-3.59,2.66-7.2h2.2v21.67h-2.2c-.7-3.63-1.6-6.04-2.7-7.22-1.1-1.18-3.64-1.76-7.61-1.76h-13.6v20.52c0,3.43.52,5.63,1.58,6.58,1.05.96,3.35,1.57,6.89,1.85v1.74h-26.25v-1.73h.01,0Z"/>
    <path class="cls-1" d="M345.84,232.05c2.94-.21,4.84-.65,5.71-1.31.87-.67,1.3-2.39,1.3-5.17v-32.1c0-2.66-.44-4.36-1.3-5.13-.87-.76-2.77-1.22-5.71-1.36v-1.34h21.35v1.34c-2.94.14-4.84.59-5.71,1.36-.87.76-1.3,2.47-1.3,5.13v32.1c0,2.78.44,4.5,1.3,5.17.87.67,2.77,1.1,5.71,1.31v1.34h-21.35v-1.34Z"/>
    <path class="cls-1" d="M373.13,232.05c2.98-.3,4.89-.98,5.74-2.02.85-1.04,1.27-3.47,1.27-7.27v-31.79l-.99-1.16c-1.05-1.24-1.95-2.01-2.69-2.31-.74-.29-1.85-.46-3.33-.51v-1.34h12.31l27.86,34.53v-23.98c0-3.94-.59-6.51-1.76-7.7-.78-.77-2.49-1.27-5.14-1.5v-1.34h16.95v1.34c-2.75.28-4.58.95-5.5,2.01s-1.38,3.48-1.38,7.26v37.98h-1.23l-31.92-39.57v28.09c0,3.94.57,6.51,1.73,7.71.75.78,2.43,1.3,5.04,1.58v1.34h-16.95v-1.35h0Z"/>
    <path class="cls-1" d="M429.2,232.05c2.94-.21,4.84-.65,5.71-1.31.87-.67,1.3-2.39,1.3-5.17v-32.1c0-2.66-.44-4.36-1.3-5.13-.87-.76-2.77-1.22-5.71-1.36v-1.34h21.35v1.34c-2.94.14-4.84.59-5.71,1.36-.87.76-1.3,2.47-1.3,5.13v32.1c0,2.78.43,4.5,1.3,5.17s2.77,1.1,5.71,1.31v1.34h-21.35v-1.34Z"/>
    <path class="cls-1" d="M456.48,232.05c2.98-.3,4.9-.98,5.74-2.02.85-1.04,1.27-3.47,1.27-7.27v-31.79l-.99-1.16c-1.06-1.24-1.95-2.01-2.69-2.31-.74-.29-1.85-.46-3.33-.51v-1.34h12.32l27.86,34.53v-23.98c0-3.94-.59-6.51-1.76-7.7-.77-.77-2.49-1.27-5.14-1.5v-1.34h16.95v1.34c-2.75.28-4.58.95-5.5,2.01s-1.37,3.48-1.37,7.26v37.98h-1.23l-31.92-39.57v28.09c0,3.94.57,6.51,1.72,7.71.75.78,2.43,1.3,5.04,1.58v1.34h-16.95v-1.35h-.02Z"/>
    <path class="cls-1" d="M512.81,185.64h40.8l.38,12.26h-1.72c-.85-3.85-1.92-6.36-3.23-7.52-1.3-1.16-4.05-1.74-8.23-1.74h-4.02v36.93c0,2.78.44,4.5,1.31,5.17s2.77,1.1,5.71,1.31v1.34h-21.04v-1.34c3.05-.23,4.95-.74,5.71-1.51.75-.77,1.13-2.71,1.13-5.82v-36.08h-4.05c-3.99,0-6.71.58-8.16,1.73-1.45,1.15-2.53,3.66-3.26,7.54h-1.76l.43-12.27h0Z"/>
  </g>
</svg>