<svg xmlns="http://www.w3.org/2000/svg" viewBox="0 0 238.11 243.95"><defs><style>.cls-1{fill:#ce0e2d;}.cls-2{fill:#fff;}.cls-3{fill:#1d8649;}</style></defs><g id="Layer_2" data-name="Layer 2"><g id="Layer_1-2" data-name="Layer 1"><path class="cls-1" d="M17,213.36h5.31v25.11H35v4.72H17Z"/><path class="cls-1" d="M53.5,220.35h4.93l9.86,22.84H62.56l-2-5H51.14l-2,5H43.59ZM59,234.17l-3.16-7.88-3.07,7.88Z"/><path class="cls-1" d="M97.32,220.35A6.82,6.82,0,0,0,94.24,218a10.39,10.39,0,0,0-7.92.11,9.69,9.69,0,0,0-3.27,2.32,10.25,10.25,0,0,0-2.1,3.45,12,12,0,0,0-.74,4.3,13.52,13.52,0,0,0,.71,4.47,10.1,10.1,0,0,0,2,3.47,9.18,9.18,0,0,0,3.18,2.26,10.51,10.51,0,0,0,4.17.8,9.28,9.28,0,0,0,4.26-.95,8.36,8.36,0,0,0,3-2.51l4.26,3A13.69,13.69,0,0,1,97,242.58a15.41,15.41,0,0,1-6.7,1.37,17.42,17.42,0,0,1-6.43-1.16,14.51,14.51,0,0,1-8.32-8.22,16.63,16.63,0,0,1-1.18-6.38,16.33,16.33,0,0,1,1.24-6.47A14.45,14.45,0,0,1,79,216.81a15,15,0,0,1,5.12-3.12,18.22,18.22,0,0,1,6.4-1.09,17.48,17.48,0,0,1,3,.27,16.63,16.63,0,0,1,3,.84,14.1,14.1,0,0,1,2.69,1.42,8.46,8.46,0,0,1,2.15,2Z"/><path class="cls-1" d="M111.87,220.31h8.3a14.78,14.78,0,0,1,3.33.36,8,8,0,0,1,2.76,1.18,5.88,5.88,0,0,1,1.89,2.13,6.68,6.68,0,0,1,.7,3.21,6.54,6.54,0,0,1-1.26,4.12,6.32,6.32,0,0,1-3.17,2.21l5.44,9.67h-6.07l-4.55-8.89H117v8.89h-5.14Zm7.75,10.07a8,8,0,0,0,1.45-.13,3.57,3.57,0,0,0,1.31-.46,2.57,2.57,0,0,0,.93-.95,3.05,3.05,0,0,0,.36-1.58,2.53,2.53,0,0,0-.32-1.32,2.36,2.36,0,0,0-.84-.85,3.51,3.51,0,0,0-1.2-.44,7.71,7.71,0,0,0-1.35-.13H117v5.86Z"/><path class="cls-1" d="M159.08,234.64a9.54,9.54,0,0,1-.76,3.89,8.3,8.3,0,0,1-2.07,2.87,9.16,9.16,0,0,1-3.05,1.77,11.71,11.71,0,0,1-7.46,0,9.1,9.1,0,0,1-3.06-1.77,8,8,0,0,1-2-2.87,9.71,9.71,0,0,1-.74-3.89V220.35H145v13.91a5.5,5.5,0,0,0,1.08,3.49,4,4,0,0,0,3.35,1.4,4,4,0,0,0,3.37-1.4,5.45,5.45,0,0,0,1.09-3.49V220.35h5.15Z"/><path class="cls-1" d="M169.12,239.06l11.63-14.54H169.24v-4.21h17.58v4.27L175.31,239h11.63v4.21H169.12Z"/><rect class="cls-2" x="68.03" y="187.09" width="68.03" height="12.76"/><rect class="cls-1" x="136.06" y="187.09" width="68.03" height="12.76"/><path class="cls-1" d="M212.6,12.7a12.34,12.34,0,0,1,1-4.95,12.76,12.76,0,0,1,2.75-4A13.14,13.14,0,0,1,220.4,1a12.66,12.66,0,0,1,9.91,0,13.14,13.14,0,0,1,4.05,2.71,12.57,12.57,0,0,1,2.74,4,12.34,12.34,0,0,1,1,4.95,12.13,12.13,0,0,1-1,4.92,12.55,12.55,0,0,1-2.74,4,12.83,12.83,0,0,1-20.76-4A12.13,12.13,0,0,1,212.6,12.7Zm2,0a10.39,10.39,0,0,0,.84,4.14,10.93,10.93,0,0,0,2.3,3.44,10.37,10.37,0,0,0,3.41,2.32A10.69,10.69,0,0,0,233,20.28a11.1,11.1,0,0,0,2.3-3.44,10.39,10.39,0,0,0,.84-4.14,10.57,10.57,0,0,0-.84-4.2A10.85,10.85,0,0,0,233,5.09a10.71,10.71,0,0,0-3.41-2.29,10.78,10.78,0,0,0-11.8,2.29,10.69,10.69,0,0,0-2.3,3.41A10.57,10.57,0,0,0,214.61,12.7Zm13.82,7-3.08-5.54h-2v5.54h-3.41V5.37h6.15a9.13,9.13,0,0,1,2,.22,5.67,5.67,0,0,1,1.73.73A3.62,3.62,0,0,1,231,7.69a4.42,4.42,0,0,1,.48,2.16,3.56,3.56,0,0,1-.81,2.4,4.73,4.73,0,0,1-2,1.4l3.8,6Zm-2.46-8a2.25,2.25,0,0,0,1.43-.5A1.64,1.64,0,0,0,228,9.85a1.34,1.34,0,0,0-.73-1.29A2.85,2.85,0,0,0,226,8.17h-2.63v3.52Z"/><path class="cls-1" d="M187.09,0H17A17,17,0,0,0,0,17V161.57a17,17,0,0,0,17,17H204.09V17A17,17,0,0,0,187.09,0ZM111.24,139.19c0,.47-.08.67-.63.67-9.93,0-19.86.21-29.78-.07a46.94,46.94,0,0,1-30.9-12.67A50,50,0,0,1,33.61,95.33a44.53,44.53,0,0,1-.33-5.54v-45c0-3.72,2.38-6.07,6.14-6.07,8.83,0,17.66.1,26.49-.05a6.13,6.13,0,0,1,6.59,6.44c-.08,14.8,0,29.6,0,44.4A10.34,10.34,0,0,0,81,99.76a43.53,43.53,0,0,0,6.66.16c1.35,0,1.34,0,1.63,1.33A55.26,55.26,0,0,0,104,128.42a51.82,51.82,0,0,0,6.64,5.73,1.26,1.26,0,0,1,.6,1.18C111.2,136.62,111.21,137.9,111.24,139.19Zm29.11.6a47.14,47.14,0,0,1-31.15-12.93A48.85,48.85,0,0,1,93.4,96.92C91.15,80.64,95.48,66.17,106.88,54a47.91,47.91,0,0,1,29.47-14.94,45.62,45.62,0,0,1,6.19-.37h22.19a5.69,5.69,0,0,1,6.07,6c0,4.66,0,9.32,0,14s0,9.32,0,14A5.69,5.69,0,0,1,166,78.59a5.6,5.6,0,0,1-1,.06q-11.15,0-22.29,0a10.39,10.39,0,0,0-10.42,8.11A10.7,10.7,0,0,0,138.16,99a10.22,10.22,0,0,0,4.33.89h22.2c3.65,0,6.09,2.33,6.1,5.92v33.95Z"/><path class="cls-3" d="M68,187.09v12.75H17A17,17,0,0,1,.53,187.09,17.57,17.57,0,0,1,0,182.83a16.84,16.84,0,0,1,.14-2.14A25.38,25.38,0,0,0,17,187.08H68Z"/></g></g></svg>