<?xml version="1.0" encoding="UTF-8"?>
<svg id="Livello_1" data-name="Livello 1" xmlns="http://www.w3.org/2000/svg" version="1.1" viewBox="0 0 778 363">
  <defs>
    <style>
      .cls-1 {
        isolation: isolate;
      }

      .cls-2 {
        fill: #fff;
        stroke-width: 0px;
      }
    </style>
  </defs>
  <g class="cls-1">
    <g>
      <path class="cls-2" d="M321.7,362.4h-3.3c-.7,0-1-.3-1-1v-45.4c0-.7.3-1,1-1h23c.7,0,1,.3,1,1v2.7c0,.7-.3,1-1,1h-17.9c-.5,0-.7.2-.7.7v16.1c0,.4.2.7.7.7h15.9c.7,0,1,.3,1,1v2.7c0,.7-.3,1-1,1h-15.9c-.5,0-.7.2-.7.7v18.8c0,.7-.3,1-1,1"/>
      <path class="cls-2" d="M365.7,357.7h7.6c4.1,0,6.2-2.1,6.2-6.4v-25.2c0-4.3-2.1-6.4-6.2-6.4h-7.6c-4.1,0-6.1,2.1-6.1,6.4v25.2c0,4.3,2,6.4,6.1,6.4M374,362.4h-8.8c-3.4,0-6.1-1-8-2.9-2-1.9-2.9-4.6-2.9-8.1v-25.6c0-3.4,1-6.1,2.9-8.1,1.9-1.9,4.6-2.9,8-2.9h8.8c3.4,0,6.1,1,8,2.9,2,1.9,2.9,4.6,2.9,8v25.6c0,3.4-1,6.1-2.9,8-1.9,1.9-4.6,2.9-8,2.9"/>
      <path class="cls-2" d="M411.2,362.4h-3.3c-.7,0-1-.3-1-1v-41.1c0-.4-.2-.7-.7-.7h-10.1c-.7,0-1.1-.3-1.1-1v-2.7c0-.7.4-1,1.1-1h27c.7,0,1.1.3,1.1,1v2.7c0,.7-.4,1-1.1,1h-10.1c-.5,0-.7.2-.7.7v41.1c0,.7-.3,1-1,1"/>
      <path class="cls-2" d="M445.7,357.7h7.6c4.1,0,6.2-2.1,6.2-6.4v-25.2c0-4.3-2.1-6.4-6.2-6.4h-7.6c-4.1,0-6.1,2.1-6.1,6.4v25.2c0,4.3,2,6.4,6.1,6.4M454,362.4h-8.8c-3.4,0-6.1-1-8-2.9-2-1.9-2.9-4.6-2.9-8.1v-25.6c0-3.4,1-6.1,2.9-8.1,1.9-1.9,4.6-2.9,8-2.9h8.8c3.4,0,6.1,1,8,2.9,2,1.9,2.9,4.6,2.9,8v25.6c0,3.4-1,6.1-2.9,8-1.9,1.9-4.6,2.9-8,2.9"/>
      <path class="cls-2" d="M495.1,362.4h-5.3c-.6,0-1.1-.3-1.3-1l-13.1-45.4c-.1-.7.2-1.1,1-1.1h3.6c.6,0,1,.3,1.2,1l11,40.4h.3l11-40.4c.1-.7.5-1,1.2-1h3.7c.7,0,1,.4.9,1.1l-13.1,45.4c-.2.7-.6,1-1.2,1"/>
      <path class="cls-2" d="M531.6,357.7h7.6c4.1,0,6.2-2.1,6.2-6.4v-25.2c0-4.3-2.1-6.4-6.2-6.4h-7.6c-4.1,0-6.1,2.1-6.1,6.4v25.2c0,4.3,2,6.4,6.1,6.4M539.8,362.4h-8.8c-3.4,0-6.1-1-8-2.9-2-1.9-2.9-4.6-2.9-8.1v-25.6c0-3.4,1-6.1,2.9-8.1,1.9-1.9,4.6-2.9,8-2.9h8.8c3.4,0,6.1,1,8,2.9,2,1.9,2.9,4.6,2.9,8v25.6c0,3.4-1,6.1-2.9,8-1.9,1.9-4.6,2.9-8,2.9"/>
      <path class="cls-2" d="M590.2,362.4h-23.8c-.7,0-1-.3-1-1v-45.4c0-.7.3-1,1-1h3.3c.7,0,1,.3,1,1v40.9c0,.4.2.7.7.7h18.7c.7,0,1,.4,1,1.1v2.7c0,.7-.3,1-1,1"/>
      <path class="cls-2" d="M614.2,362.4h-3.3c-.7,0-1-.3-1-1v-41.1c0-.4-.2-.7-.7-.7h-10.1c-.7,0-1.1-.3-1.1-1v-2.7c0-.7.4-1,1.1-1h27c.7,0,1.1.3,1.1,1v2.7c0,.7-.4,1-1.1,1h-10.1c-.5,0-.7.2-.7.7v41.1c0,.7-.3,1-1,1"/>
      <path class="cls-2" d="M651.9,320.4l-7.6,25.6h15.6l-7.6-25.6h-.3ZM638.5,362.4h-3.7c-.6,0-.9-.3-.7-1l13.9-45.4c.2-.7.7-1,1.4-1h5.3c.7,0,1.2.3,1.4,1l13.9,45.4c.2.7,0,1-.7,1h-3.8c-.5,0-.9-.3-1-1l-3.5-10.8h-17.9l-3.5,10.8c-.2.7-.6,1-1.1,1"/>
      <path class="cls-2" d="M687.3,315.9v45.4c0,.7-.3,1-1,1h-3.3c-.7,0-1-.3-1-1v-45.4c0-.7.3-1,1-1h3.3c.7,0,1,.3,1,1"/>
      <path class="cls-2" d="M722.2,362.4h-8.9c-3.4,0-6.1-1-8-2.9-2-1.9-2.9-4.6-2.9-8.1v-25.6c0-3.4,1-6.1,2.9-8.1,1.9-1.9,4.6-2.9,8-2.9h8.9c3.4,0,6.1,1,8,2.9,2,1.9,2.9,4.6,2.9,8.1v3.6c0,.7-.3,1-1,1h-3.3c-.7,0-1-.3-1-1v-3.4c0-4.3-2.1-6.4-6.2-6.4h-7.6c-4.1,0-6.1,2.1-6.1,6.4v25.2c0,4.3,2,6.4,6.1,6.4h7.6c4.1,0,6.2-2.1,6.2-6.4v-3.4c0-.7.3-1,1-1h3.3c.7,0,1,.3,1,1v3.6c0,3.5-1,6.1-2.9,8.1-2,1.9-4.6,2.9-8,2.9"/>
      <path class="cls-2" d="M757.7,357.7h7.6c4.1,0,6.2-2.1,6.2-6.4v-25.2c0-4.3-2.1-6.4-6.2-6.4h-7.6c-4.1,0-6.1,2.1-6.1,6.4v25.2c0,4.3,2,6.4,6.1,6.4M765.9,362.4h-8.8c-3.4,0-6.1-1-8-2.9-2-1.9-2.9-4.6-2.9-8.1v-25.6c0-3.4,1-6.1,2.9-8.1,1.9-1.9,4.6-2.9,8-2.9h8.8c3.4,0,6.1,1,8,2.9,2,1.9,2.9,4.6,2.9,8v25.6c0,3.4-1,6.1-2.9,8-1.9,1.9-4.6,2.9-8,2.9"/>
      <path class="cls-2" d="M221.6,1.1h32.9c5.2,0,9.5,4.3,9.5,9.5v32.8c0,5.2-4.3,9.5-9.5,9.5h-32.9c-5.2,0-9.5-4.3-9.5-9.5V10.5c0-5.2,4.3-9.5,9.5-9.5"/>
      <path class="cls-2" d="M221.6,106.2h32.9c5.2,0,9.5,4.3,9.5,9.5v32.8c0,5.2-4.3,9.5-9.5,9.5h-32.9c-5.2,0-9.5-4.3-9.5-9.5v-32.8c0-5.2,4.3-9.5,9.5-9.5"/>
      <path class="cls-2" d="M221.6,211.3h32.9c5.2,0,9.5,4.3,9.5,9.5v32.8c0,5.2-4.3,9.5-9.5,9.5h-32.9c-5.2,0-9.5-4.3-9.5-9.5v-32.8c0-5.2,4.3-9.5,9.5-9.5"/>
      <path class="cls-2" d="M115.8,106.2h32.9c5.2,0,9.5,4.3,9.5,9.5v32.8c0,5.2-4.3,9.5-9.5,9.5h-32.9c-5.2,0-9.5-4.3-9.5-9.5v-32.8c0-5.2,4.3-9.5,9.5-9.5"/>
      <path class="cls-2" d="M115.8,211.3h32.9c5.2,0,9.5,4.3,9.5,9.5v32.8c0,5.2-4.3,9.5-9.5,9.5h-32.9c-5.2,0-9.5-4.3-9.5-9.5v-32.8c0-5.2,4.3-9.5,9.5-9.5"/>
      <path class="cls-2" d="M10.1,211.3h32.9c5.2,0,9.5,4.3,9.5,9.5v32.8c0,5.2-4.3,9.5-9.5,9.5H10.1c-5.2,0-9.5-4.3-9.5-9.5v-32.8c0-5.2,4.3-9.5,9.5-9.5"/>
      <path class="cls-2" d="M734.5,1.1h32.9c5.2,0,9.5,4.3,9.5,9.5v32.8c0,5.2-4.3,9.5-9.5,9.5h-32.9c-5.2,0-9.5-4.3-9.5-9.5V10.5c0-5.2,4.3-9.5,9.5-9.5"/>
      <path class="cls-2" d="M460,263.1h-134.3c-5.7,0-8.6-2.9-8.6-8.6V9.6c0-5.7,2.9-8.6,8.6-8.6h34.7c5.7,0,8.6,2.9,8.6,8.6v203.7c0,3,1.6,4.5,4.9,4.5h86.2c5.4,0,8.2,3,8.2,9v27.7c0,5.7-2.7,8.6-8.2,8.6"/>
      <path class="cls-2" d="M607,263.1h-43.3c-21.5,0-38.1-5.7-49.8-17.1-11.7-11.4-17.6-27.8-17.6-49.3V67.5c0-21.5,5.9-37.9,17.6-49.3,11.7-11.4,28.3-17.1,49.8-17.1h43.3c21.2,0,37.7,5.8,49.4,17.3,11.7,11.5,17.6,27.9,17.6,49.1v12.2c0,6-2.9,9-8.6,9h-34.7c-5.7,0-8.6-3-8.6-9v-9.8c0-8.7-1.8-14.9-5.3-18.5-3.5-3.7-9.7-5.5-18.4-5.5h-26.5c-8.4,0-14.5,1.8-18.2,5.5-3.7,3.7-5.5,9.8-5.5,18.5v124.3c0,8.7,1.8,14.9,5.5,18.5,3.7,3.7,9.7,5.5,18.2,5.5h26.5c8.7,0,14.8-1.8,18.4-5.5,3.5-3.7,5.3-9.8,5.3-18.5v-25.7c0-3-1.5-4.5-4.5-4.5h-24.5c-5.7,0-8.6-2.8-8.6-8.6v-27.7c0-5.7,2.9-8.6,8.6-8.6h71.5c6.3,0,9.4,3.1,9.4,9.4v68c0,21.2-5.9,37.6-17.6,49.1-11.7,11.5-28.2,17.3-49.4,17.3"/>
      <path class="cls-2" d="M725,254.5c0,5.7,2.9,8.6,8.6,8.6h34.7c5.7,0,8.6-2.9,8.6-8.6V88.3h-51.9v166.2Z"/>
      <path class="cls-2" d="M321.7,362.4h-3.3c-.7,0-1-.3-1-1v-45.4c0-.7.3-1,1-1h23c.7,0,1,.3,1,1v2.7c0,.7-.3,1-1,1h-17.9c-.5,0-.7.2-.7.7v16.1c0,.4.2.7.7.7h15.9c.7,0,1,.3,1,1v2.7c0,.7-.3,1-1,1h-15.9c-.5,0-.7.2-.7.7v18.8c0,.7-.3,1-1,1"/>
      <path class="cls-2" d="M365.7,357.7h7.6c4.1,0,6.2-2.1,6.2-6.4v-25.2c0-4.3-2.1-6.4-6.2-6.4h-7.6c-4.1,0-6.1,2.1-6.1,6.4v25.2c0,4.3,2,6.4,6.1,6.4M374,362.4h-8.8c-3.4,0-6.1-1-8-2.9-2-1.9-2.9-4.6-2.9-8.1v-25.6c0-3.4,1-6.1,2.9-8.1,1.9-1.9,4.6-2.9,8-2.9h8.8c3.4,0,6.1,1,8,2.9,2,1.9,2.9,4.6,2.9,8v25.6c0,3.4-1,6.1-2.9,8-1.9,1.9-4.6,2.9-8,2.9"/>
      <path class="cls-2" d="M411.2,362.4h-3.3c-.7,0-1-.3-1-1v-41.1c0-.4-.2-.7-.7-.7h-10.1c-.7,0-1.1-.3-1.1-1v-2.7c0-.7.4-1,1.1-1h27c.7,0,1.1.3,1.1,1v2.7c0,.7-.4,1-1.1,1h-10.1c-.5,0-.7.2-.7.7v41.1c0,.7-.3,1-1,1"/>
      <path class="cls-2" d="M445.7,357.7h7.6c4.1,0,6.2-2.1,6.2-6.4v-25.2c0-4.3-2.1-6.4-6.2-6.4h-7.6c-4.1,0-6.1,2.1-6.1,6.4v25.2c0,4.3,2,6.4,6.1,6.4M454,362.4h-8.8c-3.4,0-6.1-1-8-2.9-2-1.9-2.9-4.6-2.9-8.1v-25.6c0-3.4,1-6.1,2.9-8.1,1.9-1.9,4.6-2.9,8-2.9h8.8c3.4,0,6.1,1,8,2.9,2,1.9,2.9,4.6,2.9,8v25.6c0,3.4-1,6.1-2.9,8-1.9,1.9-4.6,2.9-8,2.9"/>
      <path class="cls-2" d="M495.1,362.4h-5.3c-.6,0-1.1-.3-1.3-1l-13.1-45.4c-.1-.7.2-1.1,1-1.1h3.6c.6,0,1,.3,1.2,1l11,40.4h.3l11-40.4c.1-.7.5-1,1.2-1h3.7c.7,0,1,.4.9,1.1l-13.1,45.4c-.2.7-.6,1-1.2,1"/>
      <path class="cls-2" d="M531.6,357.7h7.6c4.1,0,6.2-2.1,6.2-6.4v-25.2c0-4.3-2.1-6.4-6.2-6.4h-7.6c-4.1,0-6.1,2.1-6.1,6.4v25.2c0,4.3,2,6.4,6.1,6.4M539.8,362.4h-8.8c-3.4,0-6.1-1-8-2.9-2-1.9-2.9-4.6-2.9-8.1v-25.6c0-3.4,1-6.1,2.9-8.1,1.9-1.9,4.6-2.9,8-2.9h8.8c3.4,0,6.1,1,8,2.9,2,1.9,2.9,4.6,2.9,8v25.6c0,3.4-1,6.1-2.9,8-1.9,1.9-4.6,2.9-8,2.9"/>
      <path class="cls-2" d="M590.2,362.4h-23.8c-.7,0-1-.3-1-1v-45.4c0-.7.3-1,1-1h3.3c.7,0,1,.3,1,1v40.9c0,.4.2.7.7.7h18.7c.7,0,1,.4,1,1.1v2.7c0,.7-.3,1-1,1"/>
      <path class="cls-2" d="M614.2,362.4h-3.3c-.7,0-1-.3-1-1v-41.1c0-.4-.2-.7-.7-.7h-10.1c-.7,0-1.1-.3-1.1-1v-2.7c0-.7.4-1,1.1-1h27c.7,0,1.1.3,1.1,1v2.7c0,.7-.4,1-1.1,1h-10.1c-.5,0-.7.2-.7.7v41.1c0,.7-.3,1-1,1"/>
      <path class="cls-2" d="M651.9,320.4l-7.6,25.6h15.6l-7.6-25.6h-.3ZM638.5,362.4h-3.7c-.6,0-.9-.3-.7-1l13.9-45.4c.2-.7.7-1,1.4-1h5.3c.7,0,1.2.3,1.4,1l13.9,45.4c.2.7,0,1-.7,1h-3.8c-.5,0-.9-.3-1-1l-3.5-10.8h-17.9l-3.5,10.8c-.2.7-.6,1-1.1,1"/>
      <path class="cls-2" d="M687.3,315.9v45.4c0,.7-.3,1-1,1h-3.3c-.7,0-1-.3-1-1v-45.4c0-.7.3-1,1-1h3.3c.7,0,1,.3,1,1"/>
      <path class="cls-2" d="M722.2,362.4h-8.9c-3.4,0-6.1-1-8-2.9-2-1.9-2.9-4.6-2.9-8.1v-25.6c0-3.4,1-6.1,2.9-8.1,1.9-1.9,4.6-2.9,8-2.9h8.9c3.4,0,6.1,1,8,2.9,2,1.9,2.9,4.6,2.9,8.1v3.6c0,.7-.3,1-1,1h-3.3c-.7,0-1-.3-1-1v-3.4c0-4.3-2.1-6.4-6.2-6.4h-7.6c-4.1,0-6.1,2.1-6.1,6.4v25.2c0,4.3,2,6.4,6.1,6.4h7.6c4.1,0,6.2-2.1,6.2-6.4v-3.4c0-.7.3-1,1-1h3.3c.7,0,1,.3,1,1v3.6c0,3.5-1,6.1-2.9,8.1-2,1.9-4.6,2.9-8,2.9"/>
      <path class="cls-2" d="M757.7,357.7h7.6c4.1,0,6.2-2.1,6.2-6.4v-25.2c0-4.3-2.1-6.4-6.2-6.4h-7.6c-4.1,0-6.1,2.1-6.1,6.4v25.2c0,4.3,2,6.4,6.1,6.4M765.9,362.4h-8.8c-3.4,0-6.1-1-8-2.9-2-1.9-2.9-4.6-2.9-8.1v-25.6c0-3.4,1-6.1,2.9-8.1,1.9-1.9,4.6-2.9,8-2.9h8.8c3.4,0,6.1,1,8,2.9,2,1.9,2.9,4.6,2.9,8v25.6c0,3.4-1,6.1-2.9,8-1.9,1.9-4.6,2.9-8,2.9"/>
      <path class="cls-2" d="M221.6,1.1h32.9c5.2,0,9.5,4.3,9.5,9.5v32.8c0,5.2-4.3,9.5-9.5,9.5h-32.9c-5.2,0-9.5-4.3-9.5-9.5V10.5c0-5.2,4.3-9.5,9.5-9.5"/>
      <path class="cls-2" d="M221.6,106.2h32.9c5.2,0,9.5,4.3,9.5,9.5v32.8c0,5.2-4.3,9.5-9.5,9.5h-32.9c-5.2,0-9.5-4.3-9.5-9.5v-32.8c0-5.2,4.3-9.5,9.5-9.5"/>
      <path class="cls-2" d="M221.6,211.3h32.9c5.2,0,9.5,4.3,9.5,9.5v32.8c0,5.2-4.3,9.5-9.5,9.5h-32.9c-5.2,0-9.5-4.3-9.5-9.5v-32.8c0-5.2,4.3-9.5,9.5-9.5"/>
      <path class="cls-2" d="M115.8,106.2h32.9c5.2,0,9.5,4.3,9.5,9.5v32.8c0,5.2-4.3,9.5-9.5,9.5h-32.9c-5.2,0-9.5-4.3-9.5-9.5v-32.8c0-5.2,4.3-9.5,9.5-9.5"/>
      <path class="cls-2" d="M115.8,211.3h32.9c5.2,0,9.5,4.3,9.5,9.5v32.8c0,5.2-4.3,9.5-9.5,9.5h-32.9c-5.2,0-9.5-4.3-9.5-9.5v-32.8c0-5.2,4.3-9.5,9.5-9.5"/>
      <path class="cls-2" d="M10.1,211.3h32.9c5.2,0,9.5,4.3,9.5,9.5v32.8c0,5.2-4.3,9.5-9.5,9.5H10.1c-5.2,0-9.5-4.3-9.5-9.5v-32.8c0-5.2,4.3-9.5,9.5-9.5"/>
      <path class="cls-2" d="M734.5,1.1h32.9c5.2,0,9.5,4.3,9.5,9.5v32.8c0,5.2-4.3,9.5-9.5,9.5h-32.9c-5.2,0-9.5-4.3-9.5-9.5V10.5c0-5.2,4.3-9.5,9.5-9.5"/>
      <path class="cls-2" d="M460,263.1h-134.3c-5.7,0-8.6-2.9-8.6-8.6V9.6c0-5.7,2.9-8.6,8.6-8.6h34.7c5.7,0,8.6,2.9,8.6,8.6v203.7c0,3,1.6,4.5,4.9,4.5h86.2c5.4,0,8.2,3,8.2,9v27.7c0,5.7-2.7,8.6-8.2,8.6"/>
      <path class="cls-2" d="M607,263.1h-43.3c-21.5,0-38.1-5.7-49.8-17.1-11.7-11.4-17.6-27.8-17.6-49.3V67.5c0-21.5,5.9-37.9,17.6-49.3,11.7-11.4,28.3-17.1,49.8-17.1h43.3c21.2,0,37.7,5.8,49.4,17.3,11.7,11.5,17.6,27.9,17.6,49.1v12.2c0,6-2.9,9-8.6,9h-34.7c-5.7,0-8.6-3-8.6-9v-9.8c0-8.7-1.8-14.9-5.3-18.5-3.5-3.7-9.7-5.5-18.4-5.5h-26.5c-8.4,0-14.5,1.8-18.2,5.5-3.7,3.7-5.5,9.8-5.5,18.5v124.3c0,8.7,1.8,14.9,5.5,18.5,3.7,3.7,9.7,5.5,18.2,5.5h26.5c8.7,0,14.8-1.8,18.4-5.5,3.5-3.7,5.3-9.8,5.3-18.5v-25.7c0-3-1.5-4.5-4.5-4.5h-24.5c-5.7,0-8.6-2.8-8.6-8.6v-27.7c0-5.7,2.9-8.6,8.6-8.6h71.5c6.3,0,9.4,3.1,9.4,9.4v68c0,21.2-5.9,37.6-17.6,49.1-11.7,11.5-28.2,17.3-49.4,17.3"/>
      <path class="cls-2" d="M725,254.5c0,5.7,2.9,8.6,8.6,8.6h34.7c5.7,0,8.6-2.9,8.6-8.6V88.3h-51.9v166.2Z"/>
    </g>
  </g>
</svg>