<svg xmlns="http://www.w3.org/2000/svg" version="1.1" xmlns:xlink="http://www.w3.org/1999/xlink" width="20" height="20"><svg id="SvgjsSvg1032" xmlns="http://www.w3.org/2000/svg" version="1.1" viewBox="0 0 20 20">
  <!-- Generator: Adobe Illustrator 29.8.3, SVG Export Plug-In . SVG Version: 2.1.1 Build 3)  -->
  <defs>
    <style>
      .st0 {
        fill: #eb6209;
      }
    </style>
  </defs>
  <path id="SvgjsPath1031" class="st0" d="M10.92,1.69h3.39c2.01.06,3.63,1.68,3.7,3.69h-3.7c-.14-1.26-1.2-2.22-2.47-2.25h-.92v-1.45h0Z"></path>
  <path id="SvgjsPath1030" class="st0" d="M9.07,16.87h-.92c-1.27-.02-2.33-.99-2.47-2.25H1.99c.07,2.02,1.68,3.63,3.7,3.7h3.39v-1.45h-.01Z"></path>
  <path id="SvgjsPath1029" class="st0" d="M10.92,16.87h.92s2.47,0,2.47-3.07-2.47-3.07-2.47-3.07h-.92v-1.45h3.39s3.7,0,3.7,4.52-3.7,4.52-3.7,4.52h-3.39v-1.45Z"></path>
  <path id="SvgjsPath1028" class="st0" d="M9.07,9.28h-.92s-2.46,0-2.46-3.07,2.46-3.07,2.46-3.07h.92v-1.45h-3.39s-3.69,0-3.69,4.52,3.7,4.52,3.7,4.52h3.39v-1.45h-.01Z"></path>
</svg><style>@media (prefers-color-scheme: light) { :root { filter: none; } }
@media (prefers-color-scheme: dark) { :root { filter: none; } }
</style></svg>